M48
; DRILL file {KiCad (5.1.7)-1} date 02/08/21 15:15:10
; FORMAT={-:-/ absolute / inch / decimal}
; #@! TF.CreationDate,2021-02-08T15:15:10+01:00
; #@! TF.GenerationSoftware,Kicad,Pcbnew,(5.1.7)-1
FMAT,2
INCH
T1C0.0315
T2C0.0394
%
G90
G05
T1
X5.3031Y-4.5906
X5.4016Y-4.5906
X5.2992Y-3.9291
X5.3976Y-3.9291
X5.5354Y-3.4213
X5.5354Y-3.5213
X5.5354Y-3.6213
X5.5354Y-3.7213
X5.5354Y-3.8213
X5.5354Y-3.9213
X5.5354Y-4.0213
X5.5354Y-4.1213
X5.5354Y-4.2213
X5.5354Y-4.3213
X5.5354Y-4.4213
X5.5354Y-4.5213
X5.5354Y-4.6213
X5.5354Y-4.7213
X5.8354Y-3.4213
X5.8354Y-3.5213
X5.8354Y-3.6213
X5.8354Y-3.7213
X5.8354Y-3.8213
X5.8354Y-3.9213
X5.8354Y-4.0213
X5.8354Y-4.1213
X5.8354Y-4.2213
X5.8354Y-4.3213
X5.8354Y-4.4213
X5.8354Y-4.5213
X5.8354Y-4.6213
X5.8354Y-4.7213
X5.3465Y-4.1614
X5.3465Y-4.3535
T2
X5.2677Y-3.4252
X5.2677Y-3.5252
X5.2677Y-3.6252
X5.3677Y-3.4252
X5.3677Y-3.5252
X5.3677Y-3.6252
T0
M30
