%TF.GenerationSoftware,KiCad,Pcbnew,(5.1.7)-1*%
%TF.CreationDate,2021-02-08T15:15:02+01:00*%
%TF.ProjectId,usbasp16Mhz,75736261-7370-4313-964d-687a2e6b6963,rev?*%
%TF.SameCoordinates,Original*%
%TF.FileFunction,Legend,Top*%
%TF.FilePolarity,Positive*%
%FSLAX46Y46*%
G04 Gerber Fmt 4.6, Leading zero omitted, Abs format (unit mm)*
G04 Created by KiCad (PCBNEW (5.1.7)-1) date 2021-02-08 15:15:02*
%MOMM*%
%LPD*%
G01*
G04 APERTURE LIST*
%ADD10C,0.120000*%
%ADD11C,0.150000*%
G04 APERTURE END LIST*
D10*
X130900000Y-90800000D02*
X132500000Y-90800000D01*
X130900000Y-88300000D02*
X130900000Y-90800000D01*
X132500000Y-88300000D02*
X130900000Y-88300000D01*
D11*
X131109523Y-121252380D02*
X131109523Y-121966666D01*
X131061904Y-122109523D01*
X130966666Y-122204761D01*
X130823809Y-122252380D01*
X130728571Y-122252380D01*
X132014285Y-122252380D02*
X132014285Y-121728571D01*
X131966666Y-121633333D01*
X131871428Y-121585714D01*
X131680952Y-121585714D01*
X131585714Y-121633333D01*
X132014285Y-122204761D02*
X131919047Y-122252380D01*
X131680952Y-122252380D01*
X131585714Y-122204761D01*
X131538095Y-122109523D01*
X131538095Y-122014285D01*
X131585714Y-121919047D01*
X131680952Y-121871428D01*
X131919047Y-121871428D01*
X132014285Y-121823809D01*
X132490476Y-121585714D02*
X132490476Y-122252380D01*
X132490476Y-121680952D02*
X132538095Y-121633333D01*
X132633333Y-121585714D01*
X132776190Y-121585714D01*
X132871428Y-121633333D01*
X132919047Y-121728571D01*
X132919047Y-122252380D01*
X134680952Y-121300000D02*
X134585714Y-121252380D01*
X134442857Y-121252380D01*
X134300000Y-121300000D01*
X134204761Y-121395238D01*
X134157142Y-121490476D01*
X134109523Y-121680952D01*
X134109523Y-121823809D01*
X134157142Y-122014285D01*
X134204761Y-122109523D01*
X134300000Y-122204761D01*
X134442857Y-122252380D01*
X134538095Y-122252380D01*
X134680952Y-122204761D01*
X134728571Y-122157142D01*
X134728571Y-121823809D01*
X134538095Y-121823809D01*
X135538095Y-122204761D02*
X135442857Y-122252380D01*
X135252380Y-122252380D01*
X135157142Y-122204761D01*
X135109523Y-122109523D01*
X135109523Y-121728571D01*
X135157142Y-121633333D01*
X135252380Y-121585714D01*
X135442857Y-121585714D01*
X135538095Y-121633333D01*
X135585714Y-121728571D01*
X135585714Y-121823809D01*
X135109523Y-121919047D01*
X136014285Y-122252380D02*
X136014285Y-121585714D01*
X136014285Y-121776190D02*
X136061904Y-121680952D01*
X136109523Y-121633333D01*
X136204761Y-121585714D01*
X136300000Y-121585714D01*
X137014285Y-122204761D02*
X136919047Y-122252380D01*
X136728571Y-122252380D01*
X136633333Y-122204761D01*
X136585714Y-122109523D01*
X136585714Y-121728571D01*
X136633333Y-121633333D01*
X136728571Y-121585714D01*
X136919047Y-121585714D01*
X137014285Y-121633333D01*
X137061904Y-121728571D01*
X137061904Y-121823809D01*
X136585714Y-121919047D01*
X137490476Y-121585714D02*
X137490476Y-122252380D01*
X137490476Y-121680952D02*
X137538095Y-121633333D01*
X137633333Y-121585714D01*
X137776190Y-121585714D01*
X137871428Y-121633333D01*
X137919047Y-121728571D01*
X137919047Y-122252380D01*
X138776190Y-122204761D02*
X138680952Y-122252380D01*
X138490476Y-122252380D01*
X138395238Y-122204761D01*
X138347619Y-122109523D01*
X138347619Y-121728571D01*
X138395238Y-121633333D01*
X138490476Y-121585714D01*
X138680952Y-121585714D01*
X138776190Y-121633333D01*
X138823809Y-121728571D01*
X138823809Y-121823809D01*
X138347619Y-121919047D01*
X138680952Y-121204761D02*
X138538095Y-121347619D01*
X130852380Y-118966666D02*
X131661904Y-118966666D01*
X131757142Y-118919047D01*
X131804761Y-118871428D01*
X131852380Y-118776190D01*
X131852380Y-118585714D01*
X131804761Y-118490476D01*
X131757142Y-118442857D01*
X131661904Y-118395238D01*
X130852380Y-118395238D01*
X131804761Y-117966666D02*
X131852380Y-117823809D01*
X131852380Y-117585714D01*
X131804761Y-117490476D01*
X131757142Y-117442857D01*
X131661904Y-117395238D01*
X131566666Y-117395238D01*
X131471428Y-117442857D01*
X131423809Y-117490476D01*
X131376190Y-117585714D01*
X131328571Y-117776190D01*
X131280952Y-117871428D01*
X131233333Y-117919047D01*
X131138095Y-117966666D01*
X131042857Y-117966666D01*
X130947619Y-117919047D01*
X130900000Y-117871428D01*
X130852380Y-117776190D01*
X130852380Y-117538095D01*
X130900000Y-117395238D01*
X131328571Y-116633333D02*
X131376190Y-116490476D01*
X131423809Y-116442857D01*
X131519047Y-116395238D01*
X131661904Y-116395238D01*
X131757142Y-116442857D01*
X131804761Y-116490476D01*
X131852380Y-116585714D01*
X131852380Y-116966666D01*
X130852380Y-116966666D01*
X130852380Y-116633333D01*
X130900000Y-116538095D01*
X130947619Y-116490476D01*
X131042857Y-116442857D01*
X131138095Y-116442857D01*
X131233333Y-116490476D01*
X131280952Y-116538095D01*
X131328571Y-116633333D01*
X131328571Y-116966666D01*
X131852380Y-115538095D02*
X131328571Y-115538095D01*
X131233333Y-115585714D01*
X131185714Y-115680952D01*
X131185714Y-115871428D01*
X131233333Y-115966666D01*
X131804761Y-115538095D02*
X131852380Y-115633333D01*
X131852380Y-115871428D01*
X131804761Y-115966666D01*
X131709523Y-116014285D01*
X131614285Y-116014285D01*
X131519047Y-115966666D01*
X131471428Y-115871428D01*
X131471428Y-115633333D01*
X131423809Y-115538095D01*
X131804761Y-115109523D02*
X131852380Y-115014285D01*
X131852380Y-114823809D01*
X131804761Y-114728571D01*
X131709523Y-114680952D01*
X131661904Y-114680952D01*
X131566666Y-114728571D01*
X131519047Y-114823809D01*
X131519047Y-114966666D01*
X131471428Y-115061904D01*
X131376190Y-115109523D01*
X131328571Y-115109523D01*
X131233333Y-115061904D01*
X131185714Y-114966666D01*
X131185714Y-114823809D01*
X131233333Y-114728571D01*
X131185714Y-114252380D02*
X132185714Y-114252380D01*
X131233333Y-114252380D02*
X131185714Y-114157142D01*
X131185714Y-113966666D01*
X131233333Y-113871428D01*
X131280952Y-113823809D01*
X131376190Y-113776190D01*
X131661904Y-113776190D01*
X131757142Y-113823809D01*
X131804761Y-113871428D01*
X131852380Y-113966666D01*
X131852380Y-114157142D01*
X131804761Y-114252380D01*
X130947619Y-112633333D02*
X130900000Y-112585714D01*
X130852380Y-112490476D01*
X130852380Y-112252380D01*
X130900000Y-112157142D01*
X130947619Y-112109523D01*
X131042857Y-112061904D01*
X131138095Y-112061904D01*
X131280952Y-112109523D01*
X131852380Y-112680952D01*
X131852380Y-112061904D01*
X131280952Y-111490476D02*
X131233333Y-111585714D01*
X131185714Y-111633333D01*
X131090476Y-111680952D01*
X131042857Y-111680952D01*
X130947619Y-111633333D01*
X130900000Y-111585714D01*
X130852380Y-111490476D01*
X130852380Y-111300000D01*
X130900000Y-111204761D01*
X130947619Y-111157142D01*
X131042857Y-111109523D01*
X131090476Y-111109523D01*
X131185714Y-111157142D01*
X131233333Y-111204761D01*
X131280952Y-111300000D01*
X131280952Y-111490476D01*
X131328571Y-111585714D01*
X131376190Y-111633333D01*
X131471428Y-111680952D01*
X131661904Y-111680952D01*
X131757142Y-111633333D01*
X131804761Y-111585714D01*
X131852380Y-111490476D01*
X131852380Y-111300000D01*
X131804761Y-111204761D01*
X131757142Y-111157142D01*
X131661904Y-111109523D01*
X131471428Y-111109523D01*
X131376190Y-111157142D01*
X131328571Y-111204761D01*
X131280952Y-111300000D01*
X131852380Y-110680952D02*
X130852380Y-110680952D01*
X130852380Y-110300000D01*
X130900000Y-110204761D01*
X130947619Y-110157142D01*
X131042857Y-110109523D01*
X131185714Y-110109523D01*
X131280952Y-110157142D01*
X131328571Y-110204761D01*
X131376190Y-110300000D01*
X131376190Y-110680952D01*
X131852380Y-108395238D02*
X131852380Y-108966666D01*
X131852380Y-108680952D02*
X130852380Y-108680952D01*
X130995238Y-108776190D01*
X131090476Y-108871428D01*
X131138095Y-108966666D01*
X130852380Y-107538095D02*
X130852380Y-107728571D01*
X130900000Y-107823809D01*
X130947619Y-107871428D01*
X131090476Y-107966666D01*
X131280952Y-108014285D01*
X131661904Y-108014285D01*
X131757142Y-107966666D01*
X131804761Y-107919047D01*
X131852380Y-107823809D01*
X131852380Y-107633333D01*
X131804761Y-107538095D01*
X131757142Y-107490476D01*
X131661904Y-107442857D01*
X131423809Y-107442857D01*
X131328571Y-107490476D01*
X131280952Y-107538095D01*
X131233333Y-107633333D01*
X131233333Y-107823809D01*
X131280952Y-107919047D01*
X131328571Y-107966666D01*
X131423809Y-108014285D01*
X131852380Y-107014285D02*
X130852380Y-107014285D01*
X131566666Y-106680952D01*
X130852380Y-106347619D01*
X131852380Y-106347619D01*
X131852380Y-105871428D02*
X130852380Y-105871428D01*
X131852380Y-105442857D02*
X131328571Y-105442857D01*
X131233333Y-105490476D01*
X131185714Y-105585714D01*
X131185714Y-105728571D01*
X131233333Y-105823809D01*
X131280952Y-105871428D01*
X131185714Y-105061904D02*
X131185714Y-104538095D01*
X131852380Y-105061904D01*
X131852380Y-104538095D01*
X130852380Y-103538095D02*
X131852380Y-103204761D01*
X130852380Y-102871428D01*
X131852380Y-102014285D02*
X131852380Y-102585714D01*
X131852380Y-102300000D02*
X130852380Y-102300000D01*
X130995238Y-102395238D01*
X131090476Y-102490476D01*
X131138095Y-102585714D01*
X131757142Y-101585714D02*
X131804761Y-101538095D01*
X131852380Y-101585714D01*
X131804761Y-101633333D01*
X131757142Y-101585714D01*
X131852380Y-101585714D01*
X131852380Y-100585714D02*
X131852380Y-101157142D01*
X131852380Y-100871428D02*
X130852380Y-100871428D01*
X130995238Y-100966666D01*
X131090476Y-101061904D01*
X131138095Y-101157142D01*
D10*
%TO.C,J1*%
X132470000Y-85670000D02*
X133800000Y-85670000D01*
X132470000Y-87000000D02*
X132470000Y-85670000D01*
X135070000Y-85670000D02*
X137670000Y-85670000D01*
X135070000Y-88270000D02*
X135070000Y-85670000D01*
X132470000Y-88270000D02*
X135070000Y-88270000D01*
X137670000Y-85670000D02*
X137670000Y-93410000D01*
X132470000Y-88270000D02*
X132470000Y-93410000D01*
X132470000Y-93410000D02*
X137670000Y-93410000D01*
%TO.C,U1*%
X147060000Y-85570000D02*
X145410000Y-85570000D01*
X147060000Y-121250000D02*
X147060000Y-85570000D01*
X141760000Y-121250000D02*
X147060000Y-121250000D01*
X141760000Y-85570000D02*
X141760000Y-121250000D01*
X143410000Y-85570000D02*
X141760000Y-85570000D01*
X145410000Y-85570000D02*
G75*
G02*
X143410000Y-85570000I-1000000J0D01*
G01*
%TO.C,Y1*%
X133275000Y-105015000D02*
X133275000Y-111265000D01*
X138325000Y-105015000D02*
X138325000Y-111265000D01*
X133275000Y-105015000D02*
G75*
G02*
X138325000Y-105015000I2525000J0D01*
G01*
X133275000Y-111265000D02*
G75*
G03*
X138325000Y-111265000I2525000J0D01*
G01*
%TO.C,C2*%
X133330000Y-115230000D02*
X138570000Y-115230000D01*
X133330000Y-117970000D02*
X138570000Y-117970000D01*
X133330000Y-115230000D02*
X133330000Y-117970000D01*
X138570000Y-115230000D02*
X138570000Y-117970000D01*
%TO.C,C1*%
X133230000Y-98430000D02*
X138470000Y-98430000D01*
X133230000Y-101170000D02*
X138470000Y-101170000D01*
X133230000Y-98430000D02*
X133230000Y-101170000D01*
X138470000Y-98430000D02*
X138470000Y-101170000D01*
%TD*%
%TO.C,J1*%
D11*
X134736666Y-84122380D02*
X134736666Y-84836666D01*
X134689047Y-84979523D01*
X134593809Y-85074761D01*
X134450952Y-85122380D01*
X134355714Y-85122380D01*
X135736666Y-85122380D02*
X135165238Y-85122380D01*
X135450952Y-85122380D02*
X135450952Y-84122380D01*
X135355714Y-84265238D01*
X135260476Y-84360476D01*
X135165238Y-84408095D01*
%TO.C,U1*%
X143648095Y-84022380D02*
X143648095Y-84831904D01*
X143695714Y-84927142D01*
X143743333Y-84974761D01*
X143838571Y-85022380D01*
X144029047Y-85022380D01*
X144124285Y-84974761D01*
X144171904Y-84927142D01*
X144219523Y-84831904D01*
X144219523Y-84022380D01*
X145219523Y-85022380D02*
X144648095Y-85022380D01*
X144933809Y-85022380D02*
X144933809Y-84022380D01*
X144838571Y-84165238D01*
X144743333Y-84260476D01*
X144648095Y-84308095D01*
%TO.C,Y1*%
X135223809Y-101576190D02*
X135223809Y-102052380D01*
X134890476Y-101052380D02*
X135223809Y-101576190D01*
X135557142Y-101052380D01*
X136414285Y-102052380D02*
X135842857Y-102052380D01*
X136128571Y-102052380D02*
X136128571Y-101052380D01*
X136033333Y-101195238D01*
X135938095Y-101290476D01*
X135842857Y-101338095D01*
%TO.C,C2*%
X135783333Y-114457142D02*
X135735714Y-114504761D01*
X135592857Y-114552380D01*
X135497619Y-114552380D01*
X135354761Y-114504761D01*
X135259523Y-114409523D01*
X135211904Y-114314285D01*
X135164285Y-114123809D01*
X135164285Y-113980952D01*
X135211904Y-113790476D01*
X135259523Y-113695238D01*
X135354761Y-113600000D01*
X135497619Y-113552380D01*
X135592857Y-113552380D01*
X135735714Y-113600000D01*
X135783333Y-113647619D01*
X136164285Y-113647619D02*
X136211904Y-113600000D01*
X136307142Y-113552380D01*
X136545238Y-113552380D01*
X136640476Y-113600000D01*
X136688095Y-113647619D01*
X136735714Y-113742857D01*
X136735714Y-113838095D01*
X136688095Y-113980952D01*
X136116666Y-114552380D01*
X136735714Y-114552380D01*
%TO.C,C1*%
X135683333Y-97657142D02*
X135635714Y-97704761D01*
X135492857Y-97752380D01*
X135397619Y-97752380D01*
X135254761Y-97704761D01*
X135159523Y-97609523D01*
X135111904Y-97514285D01*
X135064285Y-97323809D01*
X135064285Y-97180952D01*
X135111904Y-96990476D01*
X135159523Y-96895238D01*
X135254761Y-96800000D01*
X135397619Y-96752380D01*
X135492857Y-96752380D01*
X135635714Y-96800000D01*
X135683333Y-96847619D01*
X136635714Y-97752380D02*
X136064285Y-97752380D01*
X136350000Y-97752380D02*
X136350000Y-96752380D01*
X136254761Y-96895238D01*
X136159523Y-96990476D01*
X136064285Y-97038095D01*
%TD*%
M02*
