%TF.GenerationSoftware,KiCad,Pcbnew,(5.1.7)-1*%
%TF.CreationDate,2021-02-08T15:15:02+01:00*%
%TF.ProjectId,usbasp16Mhz,75736261-7370-4313-964d-687a2e6b6963,rev?*%
%TF.SameCoordinates,Original*%
%TF.FileFunction,Copper,L2,Bot*%
%TF.FilePolarity,Positive*%
%FSLAX46Y46*%
G04 Gerber Fmt 4.6, Leading zero omitted, Abs format (unit mm)*
G04 Created by KiCad (PCBNEW (5.1.7)-1) date 2021-02-08 15:15:02*
%MOMM*%
%LPD*%
G01*
G04 APERTURE LIST*
%TA.AperFunction,ComponentPad*%
%ADD10R,1.700000X1.700000*%
%TD*%
%TA.AperFunction,ComponentPad*%
%ADD11O,1.700000X1.700000*%
%TD*%
%TA.AperFunction,ComponentPad*%
%ADD12R,1.600000X1.600000*%
%TD*%
%TA.AperFunction,ComponentPad*%
%ADD13O,1.600000X1.600000*%
%TD*%
%TA.AperFunction,ComponentPad*%
%ADD14C,1.500000*%
%TD*%
%TA.AperFunction,ComponentPad*%
%ADD15C,1.600000*%
%TD*%
%TA.AperFunction,Conductor*%
%ADD16C,0.254000*%
%TD*%
%TA.AperFunction,Conductor*%
%ADD17C,0.100000*%
%TD*%
G04 APERTURE END LIST*
D10*
%TO.P,J1,1*%
%TO.N,/RST*%
X133800000Y-87000000D03*
D11*
%TO.P,J1,2*%
%TO.N,GND*%
X136340000Y-87000000D03*
%TO.P,J1,3*%
%TO.N,/SCK*%
X133800000Y-89540000D03*
%TO.P,J1,4*%
%TO.N,/MOSI*%
X136340000Y-89540000D03*
%TO.P,J1,5*%
%TO.N,/MISO*%
X133800000Y-92080000D03*
%TO.P,J1,6*%
%TO.N,/VCC*%
X136340000Y-92080000D03*
%TD*%
D12*
%TO.P,U1,1*%
%TO.N,/RST*%
X140600000Y-86900000D03*
D13*
%TO.P,U1,15*%
%TO.N,N/C*%
X148220000Y-119920000D03*
%TO.P,U1,2*%
X140600000Y-89440000D03*
%TO.P,U1,16*%
X148220000Y-117380000D03*
%TO.P,U1,3*%
X140600000Y-91980000D03*
%TO.P,U1,17*%
%TO.N,/MOSI*%
X148220000Y-114840000D03*
%TO.P,U1,4*%
%TO.N,N/C*%
X140600000Y-94520000D03*
%TO.P,U1,18*%
%TO.N,/MISO*%
X148220000Y-112300000D03*
%TO.P,U1,5*%
%TO.N,N/C*%
X140600000Y-97060000D03*
%TO.P,U1,19*%
%TO.N,/SCK*%
X148220000Y-109760000D03*
%TO.P,U1,6*%
%TO.N,N/C*%
X140600000Y-99600000D03*
%TO.P,U1,20*%
X148220000Y-107220000D03*
%TO.P,U1,7*%
%TO.N,/VCC*%
X140600000Y-102140000D03*
%TO.P,U1,21*%
%TO.N,N/C*%
X148220000Y-104680000D03*
%TO.P,U1,8*%
%TO.N,GND*%
X140600000Y-104680000D03*
%TO.P,U1,22*%
X148220000Y-102140000D03*
%TO.P,U1,9*%
%TO.N,/XTAL1*%
X140600000Y-107220000D03*
%TO.P,U1,23*%
%TO.N,N/C*%
X148220000Y-99600000D03*
%TO.P,U1,10*%
%TO.N,Net-(C2-Pad2)*%
X140600000Y-109760000D03*
%TO.P,U1,24*%
%TO.N,N/C*%
X148220000Y-97060000D03*
%TO.P,U1,11*%
X140600000Y-112300000D03*
%TO.P,U1,25*%
X148220000Y-94520000D03*
%TO.P,U1,12*%
X140600000Y-114840000D03*
%TO.P,U1,26*%
X148220000Y-91980000D03*
%TO.P,U1,13*%
X140600000Y-117380000D03*
%TO.P,U1,27*%
X148220000Y-89440000D03*
%TO.P,U1,14*%
X140600000Y-119920000D03*
%TO.P,U1,28*%
X148220000Y-86900000D03*
%TD*%
D14*
%TO.P,Y1,1*%
%TO.N,/XTAL1*%
X135800000Y-105700000D03*
%TO.P,Y1,2*%
%TO.N,Net-(C2-Pad2)*%
X135800000Y-110580000D03*
%TD*%
D15*
%TO.P,C2,1*%
%TO.N,GND*%
X134700000Y-116600000D03*
%TO.P,C2,2*%
%TO.N,Net-(C2-Pad2)*%
X137200000Y-116600000D03*
%TD*%
%TO.P,C1,1*%
%TO.N,GND*%
X134600000Y-99800000D03*
%TO.P,C1,2*%
%TO.N,/XTAL1*%
X137100000Y-99800000D03*
%TD*%
D16*
%TO.N,GND*%
X149972660Y-122172328D02*
X131227338Y-122073669D01*
X131239286Y-117592702D01*
X133886903Y-117592702D01*
X133958486Y-117836671D01*
X134213996Y-117957571D01*
X134488184Y-118026300D01*
X134770512Y-118040217D01*
X135050130Y-117998787D01*
X135316292Y-117903603D01*
X135441514Y-117836671D01*
X135513097Y-117592702D01*
X134700000Y-116779605D01*
X133886903Y-117592702D01*
X131239286Y-117592702D01*
X131241746Y-116670512D01*
X133259783Y-116670512D01*
X133301213Y-116950130D01*
X133396397Y-117216292D01*
X133463329Y-117341514D01*
X133707298Y-117413097D01*
X134520395Y-116600000D01*
X134879605Y-116600000D01*
X135692702Y-117413097D01*
X135936671Y-117341514D01*
X135950324Y-117312659D01*
X136085363Y-117514759D01*
X136285241Y-117714637D01*
X136520273Y-117871680D01*
X136781426Y-117979853D01*
X137058665Y-118035000D01*
X137341335Y-118035000D01*
X137618574Y-117979853D01*
X137879727Y-117871680D01*
X138114759Y-117714637D01*
X138314637Y-117514759D01*
X138471680Y-117279727D01*
X138579853Y-117018574D01*
X138635000Y-116741335D01*
X138635000Y-116458665D01*
X138579853Y-116181426D01*
X138471680Y-115920273D01*
X138314637Y-115685241D01*
X138114759Y-115485363D01*
X137879727Y-115328320D01*
X137618574Y-115220147D01*
X137341335Y-115165000D01*
X137058665Y-115165000D01*
X136781426Y-115220147D01*
X136520273Y-115328320D01*
X136285241Y-115485363D01*
X136085363Y-115685241D01*
X135951308Y-115885869D01*
X135936671Y-115858486D01*
X135692702Y-115786903D01*
X134879605Y-116600000D01*
X134520395Y-116600000D01*
X133707298Y-115786903D01*
X133463329Y-115858486D01*
X133342429Y-116113996D01*
X133273700Y-116388184D01*
X133259783Y-116670512D01*
X131241746Y-116670512D01*
X131244581Y-115607298D01*
X133886903Y-115607298D01*
X134700000Y-116420395D01*
X135513097Y-115607298D01*
X135441514Y-115363329D01*
X135186004Y-115242429D01*
X134911816Y-115173700D01*
X134629488Y-115159783D01*
X134349870Y-115201213D01*
X134083708Y-115296397D01*
X133958486Y-115363329D01*
X133886903Y-115607298D01*
X131244581Y-115607298D01*
X131258350Y-110443589D01*
X134415000Y-110443589D01*
X134415000Y-110716411D01*
X134468225Y-110983989D01*
X134572629Y-111236043D01*
X134724201Y-111462886D01*
X134917114Y-111655799D01*
X135143957Y-111807371D01*
X135396011Y-111911775D01*
X135663589Y-111965000D01*
X135936411Y-111965000D01*
X136203989Y-111911775D01*
X136456043Y-111807371D01*
X136682886Y-111655799D01*
X136875799Y-111462886D01*
X137027371Y-111236043D01*
X137131775Y-110983989D01*
X137185000Y-110716411D01*
X137185000Y-110443589D01*
X137131775Y-110176011D01*
X137027371Y-109923957D01*
X136875799Y-109697114D01*
X136682886Y-109504201D01*
X136456043Y-109352629D01*
X136203989Y-109248225D01*
X135936411Y-109195000D01*
X135663589Y-109195000D01*
X135396011Y-109248225D01*
X135143957Y-109352629D01*
X134917114Y-109504201D01*
X134724201Y-109697114D01*
X134572629Y-109923957D01*
X134468225Y-110176011D01*
X134415000Y-110443589D01*
X131258350Y-110443589D01*
X131271363Y-105563589D01*
X134415000Y-105563589D01*
X134415000Y-105836411D01*
X134468225Y-106103989D01*
X134572629Y-106356043D01*
X134724201Y-106582886D01*
X134917114Y-106775799D01*
X135143957Y-106927371D01*
X135396011Y-107031775D01*
X135663589Y-107085000D01*
X135936411Y-107085000D01*
X135968258Y-107078665D01*
X139165000Y-107078665D01*
X139165000Y-107361335D01*
X139220147Y-107638574D01*
X139328320Y-107899727D01*
X139485363Y-108134759D01*
X139685241Y-108334637D01*
X139917759Y-108490000D01*
X139685241Y-108645363D01*
X139485363Y-108845241D01*
X139328320Y-109080273D01*
X139220147Y-109341426D01*
X139165000Y-109618665D01*
X139165000Y-109901335D01*
X139220147Y-110178574D01*
X139328320Y-110439727D01*
X139485363Y-110674759D01*
X139685241Y-110874637D01*
X139917759Y-111030000D01*
X139685241Y-111185363D01*
X139485363Y-111385241D01*
X139328320Y-111620273D01*
X139220147Y-111881426D01*
X139165000Y-112158665D01*
X139165000Y-112441335D01*
X139220147Y-112718574D01*
X139328320Y-112979727D01*
X139485363Y-113214759D01*
X139685241Y-113414637D01*
X139917759Y-113570000D01*
X139685241Y-113725363D01*
X139485363Y-113925241D01*
X139328320Y-114160273D01*
X139220147Y-114421426D01*
X139165000Y-114698665D01*
X139165000Y-114981335D01*
X139220147Y-115258574D01*
X139328320Y-115519727D01*
X139485363Y-115754759D01*
X139685241Y-115954637D01*
X139917759Y-116110000D01*
X139685241Y-116265363D01*
X139485363Y-116465241D01*
X139328320Y-116700273D01*
X139220147Y-116961426D01*
X139165000Y-117238665D01*
X139165000Y-117521335D01*
X139220147Y-117798574D01*
X139328320Y-118059727D01*
X139485363Y-118294759D01*
X139685241Y-118494637D01*
X139917759Y-118650000D01*
X139685241Y-118805363D01*
X139485363Y-119005241D01*
X139328320Y-119240273D01*
X139220147Y-119501426D01*
X139165000Y-119778665D01*
X139165000Y-120061335D01*
X139220147Y-120338574D01*
X139328320Y-120599727D01*
X139485363Y-120834759D01*
X139685241Y-121034637D01*
X139920273Y-121191680D01*
X140181426Y-121299853D01*
X140458665Y-121355000D01*
X140741335Y-121355000D01*
X141018574Y-121299853D01*
X141279727Y-121191680D01*
X141514759Y-121034637D01*
X141714637Y-120834759D01*
X141871680Y-120599727D01*
X141979853Y-120338574D01*
X142035000Y-120061335D01*
X142035000Y-119778665D01*
X141979853Y-119501426D01*
X141871680Y-119240273D01*
X141714637Y-119005241D01*
X141514759Y-118805363D01*
X141282241Y-118650000D01*
X141514759Y-118494637D01*
X141714637Y-118294759D01*
X141871680Y-118059727D01*
X141979853Y-117798574D01*
X142035000Y-117521335D01*
X142035000Y-117238665D01*
X141979853Y-116961426D01*
X141871680Y-116700273D01*
X141714637Y-116465241D01*
X141514759Y-116265363D01*
X141282241Y-116110000D01*
X141514759Y-115954637D01*
X141714637Y-115754759D01*
X141871680Y-115519727D01*
X141979853Y-115258574D01*
X142035000Y-114981335D01*
X142035000Y-114698665D01*
X141979853Y-114421426D01*
X141871680Y-114160273D01*
X141714637Y-113925241D01*
X141514759Y-113725363D01*
X141282241Y-113570000D01*
X141514759Y-113414637D01*
X141714637Y-113214759D01*
X141871680Y-112979727D01*
X141979853Y-112718574D01*
X142035000Y-112441335D01*
X142035000Y-112158665D01*
X141979853Y-111881426D01*
X141871680Y-111620273D01*
X141714637Y-111385241D01*
X141514759Y-111185363D01*
X141282241Y-111030000D01*
X141514759Y-110874637D01*
X141714637Y-110674759D01*
X141871680Y-110439727D01*
X141979853Y-110178574D01*
X142035000Y-109901335D01*
X142035000Y-109618665D01*
X141979853Y-109341426D01*
X141871680Y-109080273D01*
X141714637Y-108845241D01*
X141514759Y-108645363D01*
X141282241Y-108490000D01*
X141514759Y-108334637D01*
X141714637Y-108134759D01*
X141871680Y-107899727D01*
X141979853Y-107638574D01*
X142035000Y-107361335D01*
X142035000Y-107078665D01*
X141979853Y-106801426D01*
X141871680Y-106540273D01*
X141714637Y-106305241D01*
X141514759Y-106105363D01*
X141279727Y-105948320D01*
X141269135Y-105943933D01*
X141455131Y-105832385D01*
X141663519Y-105643414D01*
X141831037Y-105417420D01*
X141951246Y-105163087D01*
X141991904Y-105029039D01*
X141869915Y-104807000D01*
X140727000Y-104807000D01*
X140727000Y-104827000D01*
X140473000Y-104827000D01*
X140473000Y-104807000D01*
X139330085Y-104807000D01*
X139208096Y-105029039D01*
X139248754Y-105163087D01*
X139368963Y-105417420D01*
X139536481Y-105643414D01*
X139744869Y-105832385D01*
X139930865Y-105943933D01*
X139920273Y-105948320D01*
X139685241Y-106105363D01*
X139485363Y-106305241D01*
X139328320Y-106540273D01*
X139220147Y-106801426D01*
X139165000Y-107078665D01*
X135968258Y-107078665D01*
X136203989Y-107031775D01*
X136456043Y-106927371D01*
X136682886Y-106775799D01*
X136875799Y-106582886D01*
X137027371Y-106356043D01*
X137131775Y-106103989D01*
X137185000Y-105836411D01*
X137185000Y-105563589D01*
X137131775Y-105296011D01*
X137027371Y-105043957D01*
X136875799Y-104817114D01*
X136682886Y-104624201D01*
X136456043Y-104472629D01*
X136203989Y-104368225D01*
X135936411Y-104315000D01*
X135663589Y-104315000D01*
X135396011Y-104368225D01*
X135143957Y-104472629D01*
X134917114Y-104624201D01*
X134724201Y-104817114D01*
X134572629Y-105043957D01*
X134468225Y-105296011D01*
X134415000Y-105563589D01*
X131271363Y-105563589D01*
X131284086Y-100792702D01*
X133786903Y-100792702D01*
X133858486Y-101036671D01*
X134113996Y-101157571D01*
X134388184Y-101226300D01*
X134670512Y-101240217D01*
X134950130Y-101198787D01*
X135216292Y-101103603D01*
X135341514Y-101036671D01*
X135413097Y-100792702D01*
X134600000Y-99979605D01*
X133786903Y-100792702D01*
X131284086Y-100792702D01*
X131286546Y-99870512D01*
X133159783Y-99870512D01*
X133201213Y-100150130D01*
X133296397Y-100416292D01*
X133363329Y-100541514D01*
X133607298Y-100613097D01*
X134420395Y-99800000D01*
X134779605Y-99800000D01*
X135592702Y-100613097D01*
X135836671Y-100541514D01*
X135850324Y-100512659D01*
X135985363Y-100714759D01*
X136185241Y-100914637D01*
X136420273Y-101071680D01*
X136681426Y-101179853D01*
X136958665Y-101235000D01*
X137241335Y-101235000D01*
X137518574Y-101179853D01*
X137779727Y-101071680D01*
X138014759Y-100914637D01*
X138214637Y-100714759D01*
X138371680Y-100479727D01*
X138479853Y-100218574D01*
X138535000Y-99941335D01*
X138535000Y-99658665D01*
X138479853Y-99381426D01*
X138371680Y-99120273D01*
X138214637Y-98885241D01*
X138014759Y-98685363D01*
X137779727Y-98528320D01*
X137518574Y-98420147D01*
X137241335Y-98365000D01*
X136958665Y-98365000D01*
X136681426Y-98420147D01*
X136420273Y-98528320D01*
X136185241Y-98685363D01*
X135985363Y-98885241D01*
X135851308Y-99085869D01*
X135836671Y-99058486D01*
X135592702Y-98986903D01*
X134779605Y-99800000D01*
X134420395Y-99800000D01*
X133607298Y-98986903D01*
X133363329Y-99058486D01*
X133242429Y-99313996D01*
X133173700Y-99588184D01*
X133159783Y-99870512D01*
X131286546Y-99870512D01*
X131289381Y-98807298D01*
X133786903Y-98807298D01*
X134600000Y-99620395D01*
X135413097Y-98807298D01*
X135341514Y-98563329D01*
X135086004Y-98442429D01*
X134811816Y-98373700D01*
X134529488Y-98359783D01*
X134249870Y-98401213D01*
X133983708Y-98496397D01*
X133858486Y-98563329D01*
X133786903Y-98807298D01*
X131289381Y-98807298D01*
X131323134Y-86150000D01*
X132311928Y-86150000D01*
X132311928Y-87850000D01*
X132324188Y-87974482D01*
X132360498Y-88094180D01*
X132419463Y-88204494D01*
X132498815Y-88301185D01*
X132595506Y-88380537D01*
X132705820Y-88439502D01*
X132778380Y-88461513D01*
X132646525Y-88593368D01*
X132484010Y-88836589D01*
X132372068Y-89106842D01*
X132315000Y-89393740D01*
X132315000Y-89686260D01*
X132372068Y-89973158D01*
X132484010Y-90243411D01*
X132646525Y-90486632D01*
X132853368Y-90693475D01*
X133027760Y-90810000D01*
X132853368Y-90926525D01*
X132646525Y-91133368D01*
X132484010Y-91376589D01*
X132372068Y-91646842D01*
X132315000Y-91933740D01*
X132315000Y-92226260D01*
X132372068Y-92513158D01*
X132484010Y-92783411D01*
X132646525Y-93026632D01*
X132853368Y-93233475D01*
X133096589Y-93395990D01*
X133366842Y-93507932D01*
X133653740Y-93565000D01*
X133946260Y-93565000D01*
X134233158Y-93507932D01*
X134503411Y-93395990D01*
X134746632Y-93233475D01*
X134953475Y-93026632D01*
X135070000Y-92852240D01*
X135186525Y-93026632D01*
X135393368Y-93233475D01*
X135636589Y-93395990D01*
X135906842Y-93507932D01*
X136193740Y-93565000D01*
X136486260Y-93565000D01*
X136773158Y-93507932D01*
X137043411Y-93395990D01*
X137286632Y-93233475D01*
X137493475Y-93026632D01*
X137655990Y-92783411D01*
X137767932Y-92513158D01*
X137825000Y-92226260D01*
X137825000Y-91933740D01*
X137767932Y-91646842D01*
X137655990Y-91376589D01*
X137493475Y-91133368D01*
X137286632Y-90926525D01*
X137112240Y-90810000D01*
X137286632Y-90693475D01*
X137493475Y-90486632D01*
X137655990Y-90243411D01*
X137767932Y-89973158D01*
X137825000Y-89686260D01*
X137825000Y-89393740D01*
X137767932Y-89106842D01*
X137655990Y-88836589D01*
X137493475Y-88593368D01*
X137286632Y-88386525D01*
X137104466Y-88264805D01*
X137221355Y-88195178D01*
X137437588Y-88000269D01*
X137611641Y-87766920D01*
X137736825Y-87504099D01*
X137781476Y-87356890D01*
X137660155Y-87127000D01*
X136467000Y-87127000D01*
X136467000Y-87147000D01*
X136213000Y-87147000D01*
X136213000Y-87127000D01*
X136193000Y-87127000D01*
X136193000Y-86873000D01*
X136213000Y-86873000D01*
X136213000Y-85679186D01*
X136467000Y-85679186D01*
X136467000Y-86873000D01*
X137660155Y-86873000D01*
X137781476Y-86643110D01*
X137736825Y-86495901D01*
X137611641Y-86233080D01*
X137512378Y-86100000D01*
X139161928Y-86100000D01*
X139161928Y-87700000D01*
X139174188Y-87824482D01*
X139210498Y-87944180D01*
X139269463Y-88054494D01*
X139348815Y-88151185D01*
X139445506Y-88230537D01*
X139555820Y-88289502D01*
X139675518Y-88325812D01*
X139683961Y-88326643D01*
X139485363Y-88525241D01*
X139328320Y-88760273D01*
X139220147Y-89021426D01*
X139165000Y-89298665D01*
X139165000Y-89581335D01*
X139220147Y-89858574D01*
X139328320Y-90119727D01*
X139485363Y-90354759D01*
X139685241Y-90554637D01*
X139917759Y-90710000D01*
X139685241Y-90865363D01*
X139485363Y-91065241D01*
X139328320Y-91300273D01*
X139220147Y-91561426D01*
X139165000Y-91838665D01*
X139165000Y-92121335D01*
X139220147Y-92398574D01*
X139328320Y-92659727D01*
X139485363Y-92894759D01*
X139685241Y-93094637D01*
X139917759Y-93250000D01*
X139685241Y-93405363D01*
X139485363Y-93605241D01*
X139328320Y-93840273D01*
X139220147Y-94101426D01*
X139165000Y-94378665D01*
X139165000Y-94661335D01*
X139220147Y-94938574D01*
X139328320Y-95199727D01*
X139485363Y-95434759D01*
X139685241Y-95634637D01*
X139917759Y-95790000D01*
X139685241Y-95945363D01*
X139485363Y-96145241D01*
X139328320Y-96380273D01*
X139220147Y-96641426D01*
X139165000Y-96918665D01*
X139165000Y-97201335D01*
X139220147Y-97478574D01*
X139328320Y-97739727D01*
X139485363Y-97974759D01*
X139685241Y-98174637D01*
X139917759Y-98330000D01*
X139685241Y-98485363D01*
X139485363Y-98685241D01*
X139328320Y-98920273D01*
X139220147Y-99181426D01*
X139165000Y-99458665D01*
X139165000Y-99741335D01*
X139220147Y-100018574D01*
X139328320Y-100279727D01*
X139485363Y-100514759D01*
X139685241Y-100714637D01*
X139917759Y-100870000D01*
X139685241Y-101025363D01*
X139485363Y-101225241D01*
X139328320Y-101460273D01*
X139220147Y-101721426D01*
X139165000Y-101998665D01*
X139165000Y-102281335D01*
X139220147Y-102558574D01*
X139328320Y-102819727D01*
X139485363Y-103054759D01*
X139685241Y-103254637D01*
X139920273Y-103411680D01*
X139930865Y-103416067D01*
X139744869Y-103527615D01*
X139536481Y-103716586D01*
X139368963Y-103942580D01*
X139248754Y-104196913D01*
X139208096Y-104330961D01*
X139330085Y-104553000D01*
X140473000Y-104553000D01*
X140473000Y-104533000D01*
X140727000Y-104533000D01*
X140727000Y-104553000D01*
X141869915Y-104553000D01*
X141877790Y-104538665D01*
X146785000Y-104538665D01*
X146785000Y-104821335D01*
X146840147Y-105098574D01*
X146948320Y-105359727D01*
X147105363Y-105594759D01*
X147305241Y-105794637D01*
X147537759Y-105950000D01*
X147305241Y-106105363D01*
X147105363Y-106305241D01*
X146948320Y-106540273D01*
X146840147Y-106801426D01*
X146785000Y-107078665D01*
X146785000Y-107361335D01*
X146840147Y-107638574D01*
X146948320Y-107899727D01*
X147105363Y-108134759D01*
X147305241Y-108334637D01*
X147537759Y-108490000D01*
X147305241Y-108645363D01*
X147105363Y-108845241D01*
X146948320Y-109080273D01*
X146840147Y-109341426D01*
X146785000Y-109618665D01*
X146785000Y-109901335D01*
X146840147Y-110178574D01*
X146948320Y-110439727D01*
X147105363Y-110674759D01*
X147305241Y-110874637D01*
X147537759Y-111030000D01*
X147305241Y-111185363D01*
X147105363Y-111385241D01*
X146948320Y-111620273D01*
X146840147Y-111881426D01*
X146785000Y-112158665D01*
X146785000Y-112441335D01*
X146840147Y-112718574D01*
X146948320Y-112979727D01*
X147105363Y-113214759D01*
X147305241Y-113414637D01*
X147537759Y-113570000D01*
X147305241Y-113725363D01*
X147105363Y-113925241D01*
X146948320Y-114160273D01*
X146840147Y-114421426D01*
X146785000Y-114698665D01*
X146785000Y-114981335D01*
X146840147Y-115258574D01*
X146948320Y-115519727D01*
X147105363Y-115754759D01*
X147305241Y-115954637D01*
X147537759Y-116110000D01*
X147305241Y-116265363D01*
X147105363Y-116465241D01*
X146948320Y-116700273D01*
X146840147Y-116961426D01*
X146785000Y-117238665D01*
X146785000Y-117521335D01*
X146840147Y-117798574D01*
X146948320Y-118059727D01*
X147105363Y-118294759D01*
X147305241Y-118494637D01*
X147537759Y-118650000D01*
X147305241Y-118805363D01*
X147105363Y-119005241D01*
X146948320Y-119240273D01*
X146840147Y-119501426D01*
X146785000Y-119778665D01*
X146785000Y-120061335D01*
X146840147Y-120338574D01*
X146948320Y-120599727D01*
X147105363Y-120834759D01*
X147305241Y-121034637D01*
X147540273Y-121191680D01*
X147801426Y-121299853D01*
X148078665Y-121355000D01*
X148361335Y-121355000D01*
X148638574Y-121299853D01*
X148899727Y-121191680D01*
X149134759Y-121034637D01*
X149334637Y-120834759D01*
X149491680Y-120599727D01*
X149599853Y-120338574D01*
X149655000Y-120061335D01*
X149655000Y-119778665D01*
X149599853Y-119501426D01*
X149491680Y-119240273D01*
X149334637Y-119005241D01*
X149134759Y-118805363D01*
X148902241Y-118650000D01*
X149134759Y-118494637D01*
X149334637Y-118294759D01*
X149491680Y-118059727D01*
X149599853Y-117798574D01*
X149655000Y-117521335D01*
X149655000Y-117238665D01*
X149599853Y-116961426D01*
X149491680Y-116700273D01*
X149334637Y-116465241D01*
X149134759Y-116265363D01*
X148902241Y-116110000D01*
X149134759Y-115954637D01*
X149334637Y-115754759D01*
X149491680Y-115519727D01*
X149599853Y-115258574D01*
X149655000Y-114981335D01*
X149655000Y-114698665D01*
X149599853Y-114421426D01*
X149491680Y-114160273D01*
X149334637Y-113925241D01*
X149134759Y-113725363D01*
X148902241Y-113570000D01*
X149134759Y-113414637D01*
X149334637Y-113214759D01*
X149491680Y-112979727D01*
X149599853Y-112718574D01*
X149655000Y-112441335D01*
X149655000Y-112158665D01*
X149599853Y-111881426D01*
X149491680Y-111620273D01*
X149334637Y-111385241D01*
X149134759Y-111185363D01*
X148902241Y-111030000D01*
X149134759Y-110874637D01*
X149334637Y-110674759D01*
X149491680Y-110439727D01*
X149599853Y-110178574D01*
X149655000Y-109901335D01*
X149655000Y-109618665D01*
X149599853Y-109341426D01*
X149491680Y-109080273D01*
X149334637Y-108845241D01*
X149134759Y-108645363D01*
X148902241Y-108490000D01*
X149134759Y-108334637D01*
X149334637Y-108134759D01*
X149491680Y-107899727D01*
X149599853Y-107638574D01*
X149655000Y-107361335D01*
X149655000Y-107078665D01*
X149599853Y-106801426D01*
X149491680Y-106540273D01*
X149334637Y-106305241D01*
X149134759Y-106105363D01*
X148902241Y-105950000D01*
X149134759Y-105794637D01*
X149334637Y-105594759D01*
X149491680Y-105359727D01*
X149599853Y-105098574D01*
X149655000Y-104821335D01*
X149655000Y-104538665D01*
X149599853Y-104261426D01*
X149491680Y-104000273D01*
X149334637Y-103765241D01*
X149134759Y-103565363D01*
X148899727Y-103408320D01*
X148889135Y-103403933D01*
X149075131Y-103292385D01*
X149283519Y-103103414D01*
X149451037Y-102877420D01*
X149571246Y-102623087D01*
X149611904Y-102489039D01*
X149489915Y-102267000D01*
X148347000Y-102267000D01*
X148347000Y-102287000D01*
X148093000Y-102287000D01*
X148093000Y-102267000D01*
X146950085Y-102267000D01*
X146828096Y-102489039D01*
X146868754Y-102623087D01*
X146988963Y-102877420D01*
X147156481Y-103103414D01*
X147364869Y-103292385D01*
X147550865Y-103403933D01*
X147540273Y-103408320D01*
X147305241Y-103565363D01*
X147105363Y-103765241D01*
X146948320Y-104000273D01*
X146840147Y-104261426D01*
X146785000Y-104538665D01*
X141877790Y-104538665D01*
X141991904Y-104330961D01*
X141951246Y-104196913D01*
X141831037Y-103942580D01*
X141663519Y-103716586D01*
X141455131Y-103527615D01*
X141269135Y-103416067D01*
X141279727Y-103411680D01*
X141514759Y-103254637D01*
X141714637Y-103054759D01*
X141871680Y-102819727D01*
X141979853Y-102558574D01*
X142035000Y-102281335D01*
X142035000Y-101998665D01*
X141979853Y-101721426D01*
X141871680Y-101460273D01*
X141714637Y-101225241D01*
X141514759Y-101025363D01*
X141282241Y-100870000D01*
X141514759Y-100714637D01*
X141714637Y-100514759D01*
X141871680Y-100279727D01*
X141979853Y-100018574D01*
X142035000Y-99741335D01*
X142035000Y-99458665D01*
X141979853Y-99181426D01*
X141871680Y-98920273D01*
X141714637Y-98685241D01*
X141514759Y-98485363D01*
X141282241Y-98330000D01*
X141514759Y-98174637D01*
X141714637Y-97974759D01*
X141871680Y-97739727D01*
X141979853Y-97478574D01*
X142035000Y-97201335D01*
X142035000Y-96918665D01*
X141979853Y-96641426D01*
X141871680Y-96380273D01*
X141714637Y-96145241D01*
X141514759Y-95945363D01*
X141282241Y-95790000D01*
X141514759Y-95634637D01*
X141714637Y-95434759D01*
X141871680Y-95199727D01*
X141979853Y-94938574D01*
X142035000Y-94661335D01*
X142035000Y-94378665D01*
X141979853Y-94101426D01*
X141871680Y-93840273D01*
X141714637Y-93605241D01*
X141514759Y-93405363D01*
X141282241Y-93250000D01*
X141514759Y-93094637D01*
X141714637Y-92894759D01*
X141871680Y-92659727D01*
X141979853Y-92398574D01*
X142035000Y-92121335D01*
X142035000Y-91838665D01*
X141979853Y-91561426D01*
X141871680Y-91300273D01*
X141714637Y-91065241D01*
X141514759Y-90865363D01*
X141282241Y-90710000D01*
X141514759Y-90554637D01*
X141714637Y-90354759D01*
X141871680Y-90119727D01*
X141979853Y-89858574D01*
X142035000Y-89581335D01*
X142035000Y-89298665D01*
X141979853Y-89021426D01*
X141871680Y-88760273D01*
X141714637Y-88525241D01*
X141516039Y-88326643D01*
X141524482Y-88325812D01*
X141644180Y-88289502D01*
X141754494Y-88230537D01*
X141851185Y-88151185D01*
X141930537Y-88054494D01*
X141989502Y-87944180D01*
X142025812Y-87824482D01*
X142038072Y-87700000D01*
X142038072Y-86758665D01*
X146785000Y-86758665D01*
X146785000Y-87041335D01*
X146840147Y-87318574D01*
X146948320Y-87579727D01*
X147105363Y-87814759D01*
X147305241Y-88014637D01*
X147537759Y-88170000D01*
X147305241Y-88325363D01*
X147105363Y-88525241D01*
X146948320Y-88760273D01*
X146840147Y-89021426D01*
X146785000Y-89298665D01*
X146785000Y-89581335D01*
X146840147Y-89858574D01*
X146948320Y-90119727D01*
X147105363Y-90354759D01*
X147305241Y-90554637D01*
X147537759Y-90710000D01*
X147305241Y-90865363D01*
X147105363Y-91065241D01*
X146948320Y-91300273D01*
X146840147Y-91561426D01*
X146785000Y-91838665D01*
X146785000Y-92121335D01*
X146840147Y-92398574D01*
X146948320Y-92659727D01*
X147105363Y-92894759D01*
X147305241Y-93094637D01*
X147537759Y-93250000D01*
X147305241Y-93405363D01*
X147105363Y-93605241D01*
X146948320Y-93840273D01*
X146840147Y-94101426D01*
X146785000Y-94378665D01*
X146785000Y-94661335D01*
X146840147Y-94938574D01*
X146948320Y-95199727D01*
X147105363Y-95434759D01*
X147305241Y-95634637D01*
X147537759Y-95790000D01*
X147305241Y-95945363D01*
X147105363Y-96145241D01*
X146948320Y-96380273D01*
X146840147Y-96641426D01*
X146785000Y-96918665D01*
X146785000Y-97201335D01*
X146840147Y-97478574D01*
X146948320Y-97739727D01*
X147105363Y-97974759D01*
X147305241Y-98174637D01*
X147537759Y-98330000D01*
X147305241Y-98485363D01*
X147105363Y-98685241D01*
X146948320Y-98920273D01*
X146840147Y-99181426D01*
X146785000Y-99458665D01*
X146785000Y-99741335D01*
X146840147Y-100018574D01*
X146948320Y-100279727D01*
X147105363Y-100514759D01*
X147305241Y-100714637D01*
X147540273Y-100871680D01*
X147550865Y-100876067D01*
X147364869Y-100987615D01*
X147156481Y-101176586D01*
X146988963Y-101402580D01*
X146868754Y-101656913D01*
X146828096Y-101790961D01*
X146950085Y-102013000D01*
X148093000Y-102013000D01*
X148093000Y-101993000D01*
X148347000Y-101993000D01*
X148347000Y-102013000D01*
X149489915Y-102013000D01*
X149611904Y-101790961D01*
X149571246Y-101656913D01*
X149451037Y-101402580D01*
X149283519Y-101176586D01*
X149075131Y-100987615D01*
X148889135Y-100876067D01*
X148899727Y-100871680D01*
X149134759Y-100714637D01*
X149334637Y-100514759D01*
X149491680Y-100279727D01*
X149599853Y-100018574D01*
X149655000Y-99741335D01*
X149655000Y-99458665D01*
X149599853Y-99181426D01*
X149491680Y-98920273D01*
X149334637Y-98685241D01*
X149134759Y-98485363D01*
X148902241Y-98330000D01*
X149134759Y-98174637D01*
X149334637Y-97974759D01*
X149491680Y-97739727D01*
X149599853Y-97478574D01*
X149655000Y-97201335D01*
X149655000Y-96918665D01*
X149599853Y-96641426D01*
X149491680Y-96380273D01*
X149334637Y-96145241D01*
X149134759Y-95945363D01*
X148902241Y-95790000D01*
X149134759Y-95634637D01*
X149334637Y-95434759D01*
X149491680Y-95199727D01*
X149599853Y-94938574D01*
X149655000Y-94661335D01*
X149655000Y-94378665D01*
X149599853Y-94101426D01*
X149491680Y-93840273D01*
X149334637Y-93605241D01*
X149134759Y-93405363D01*
X148902241Y-93250000D01*
X149134759Y-93094637D01*
X149334637Y-92894759D01*
X149491680Y-92659727D01*
X149599853Y-92398574D01*
X149655000Y-92121335D01*
X149655000Y-91838665D01*
X149599853Y-91561426D01*
X149491680Y-91300273D01*
X149334637Y-91065241D01*
X149134759Y-90865363D01*
X148902241Y-90710000D01*
X149134759Y-90554637D01*
X149334637Y-90354759D01*
X149491680Y-90119727D01*
X149599853Y-89858574D01*
X149655000Y-89581335D01*
X149655000Y-89298665D01*
X149599853Y-89021426D01*
X149491680Y-88760273D01*
X149334637Y-88525241D01*
X149134759Y-88325363D01*
X148902241Y-88170000D01*
X149134759Y-88014637D01*
X149334637Y-87814759D01*
X149491680Y-87579727D01*
X149599853Y-87318574D01*
X149655000Y-87041335D01*
X149655000Y-86758665D01*
X149599853Y-86481426D01*
X149491680Y-86220273D01*
X149334637Y-85985241D01*
X149134759Y-85785363D01*
X148899727Y-85628320D01*
X148638574Y-85520147D01*
X148361335Y-85465000D01*
X148078665Y-85465000D01*
X147801426Y-85520147D01*
X147540273Y-85628320D01*
X147305241Y-85785363D01*
X147105363Y-85985241D01*
X146948320Y-86220273D01*
X146840147Y-86481426D01*
X146785000Y-86758665D01*
X142038072Y-86758665D01*
X142038072Y-86100000D01*
X142025812Y-85975518D01*
X141989502Y-85855820D01*
X141930537Y-85745506D01*
X141851185Y-85648815D01*
X141754494Y-85569463D01*
X141644180Y-85510498D01*
X141524482Y-85474188D01*
X141400000Y-85461928D01*
X139800000Y-85461928D01*
X139675518Y-85474188D01*
X139555820Y-85510498D01*
X139445506Y-85569463D01*
X139348815Y-85648815D01*
X139269463Y-85745506D01*
X139210498Y-85855820D01*
X139174188Y-85975518D01*
X139161928Y-86100000D01*
X137512378Y-86100000D01*
X137437588Y-85999731D01*
X137221355Y-85804822D01*
X136971252Y-85655843D01*
X136696891Y-85558519D01*
X136467000Y-85679186D01*
X136213000Y-85679186D01*
X135983109Y-85558519D01*
X135708748Y-85655843D01*
X135458645Y-85804822D01*
X135262498Y-85981626D01*
X135239502Y-85905820D01*
X135180537Y-85795506D01*
X135101185Y-85698815D01*
X135004494Y-85619463D01*
X134894180Y-85560498D01*
X134774482Y-85524188D01*
X134650000Y-85511928D01*
X132950000Y-85511928D01*
X132825518Y-85524188D01*
X132705820Y-85560498D01*
X132595506Y-85619463D01*
X132498815Y-85698815D01*
X132419463Y-85795506D01*
X132360498Y-85905820D01*
X132324188Y-86025518D01*
X132311928Y-86150000D01*
X131323134Y-86150000D01*
X131326662Y-84827000D01*
X149873337Y-84827000D01*
X149972660Y-122172328D01*
%TA.AperFunction,Conductor*%
D17*
G36*
X149972660Y-122172328D02*
G01*
X131227338Y-122073669D01*
X131239286Y-117592702D01*
X133886903Y-117592702D01*
X133958486Y-117836671D01*
X134213996Y-117957571D01*
X134488184Y-118026300D01*
X134770512Y-118040217D01*
X135050130Y-117998787D01*
X135316292Y-117903603D01*
X135441514Y-117836671D01*
X135513097Y-117592702D01*
X134700000Y-116779605D01*
X133886903Y-117592702D01*
X131239286Y-117592702D01*
X131241746Y-116670512D01*
X133259783Y-116670512D01*
X133301213Y-116950130D01*
X133396397Y-117216292D01*
X133463329Y-117341514D01*
X133707298Y-117413097D01*
X134520395Y-116600000D01*
X134879605Y-116600000D01*
X135692702Y-117413097D01*
X135936671Y-117341514D01*
X135950324Y-117312659D01*
X136085363Y-117514759D01*
X136285241Y-117714637D01*
X136520273Y-117871680D01*
X136781426Y-117979853D01*
X137058665Y-118035000D01*
X137341335Y-118035000D01*
X137618574Y-117979853D01*
X137879727Y-117871680D01*
X138114759Y-117714637D01*
X138314637Y-117514759D01*
X138471680Y-117279727D01*
X138579853Y-117018574D01*
X138635000Y-116741335D01*
X138635000Y-116458665D01*
X138579853Y-116181426D01*
X138471680Y-115920273D01*
X138314637Y-115685241D01*
X138114759Y-115485363D01*
X137879727Y-115328320D01*
X137618574Y-115220147D01*
X137341335Y-115165000D01*
X137058665Y-115165000D01*
X136781426Y-115220147D01*
X136520273Y-115328320D01*
X136285241Y-115485363D01*
X136085363Y-115685241D01*
X135951308Y-115885869D01*
X135936671Y-115858486D01*
X135692702Y-115786903D01*
X134879605Y-116600000D01*
X134520395Y-116600000D01*
X133707298Y-115786903D01*
X133463329Y-115858486D01*
X133342429Y-116113996D01*
X133273700Y-116388184D01*
X133259783Y-116670512D01*
X131241746Y-116670512D01*
X131244581Y-115607298D01*
X133886903Y-115607298D01*
X134700000Y-116420395D01*
X135513097Y-115607298D01*
X135441514Y-115363329D01*
X135186004Y-115242429D01*
X134911816Y-115173700D01*
X134629488Y-115159783D01*
X134349870Y-115201213D01*
X134083708Y-115296397D01*
X133958486Y-115363329D01*
X133886903Y-115607298D01*
X131244581Y-115607298D01*
X131258350Y-110443589D01*
X134415000Y-110443589D01*
X134415000Y-110716411D01*
X134468225Y-110983989D01*
X134572629Y-111236043D01*
X134724201Y-111462886D01*
X134917114Y-111655799D01*
X135143957Y-111807371D01*
X135396011Y-111911775D01*
X135663589Y-111965000D01*
X135936411Y-111965000D01*
X136203989Y-111911775D01*
X136456043Y-111807371D01*
X136682886Y-111655799D01*
X136875799Y-111462886D01*
X137027371Y-111236043D01*
X137131775Y-110983989D01*
X137185000Y-110716411D01*
X137185000Y-110443589D01*
X137131775Y-110176011D01*
X137027371Y-109923957D01*
X136875799Y-109697114D01*
X136682886Y-109504201D01*
X136456043Y-109352629D01*
X136203989Y-109248225D01*
X135936411Y-109195000D01*
X135663589Y-109195000D01*
X135396011Y-109248225D01*
X135143957Y-109352629D01*
X134917114Y-109504201D01*
X134724201Y-109697114D01*
X134572629Y-109923957D01*
X134468225Y-110176011D01*
X134415000Y-110443589D01*
X131258350Y-110443589D01*
X131271363Y-105563589D01*
X134415000Y-105563589D01*
X134415000Y-105836411D01*
X134468225Y-106103989D01*
X134572629Y-106356043D01*
X134724201Y-106582886D01*
X134917114Y-106775799D01*
X135143957Y-106927371D01*
X135396011Y-107031775D01*
X135663589Y-107085000D01*
X135936411Y-107085000D01*
X135968258Y-107078665D01*
X139165000Y-107078665D01*
X139165000Y-107361335D01*
X139220147Y-107638574D01*
X139328320Y-107899727D01*
X139485363Y-108134759D01*
X139685241Y-108334637D01*
X139917759Y-108490000D01*
X139685241Y-108645363D01*
X139485363Y-108845241D01*
X139328320Y-109080273D01*
X139220147Y-109341426D01*
X139165000Y-109618665D01*
X139165000Y-109901335D01*
X139220147Y-110178574D01*
X139328320Y-110439727D01*
X139485363Y-110674759D01*
X139685241Y-110874637D01*
X139917759Y-111030000D01*
X139685241Y-111185363D01*
X139485363Y-111385241D01*
X139328320Y-111620273D01*
X139220147Y-111881426D01*
X139165000Y-112158665D01*
X139165000Y-112441335D01*
X139220147Y-112718574D01*
X139328320Y-112979727D01*
X139485363Y-113214759D01*
X139685241Y-113414637D01*
X139917759Y-113570000D01*
X139685241Y-113725363D01*
X139485363Y-113925241D01*
X139328320Y-114160273D01*
X139220147Y-114421426D01*
X139165000Y-114698665D01*
X139165000Y-114981335D01*
X139220147Y-115258574D01*
X139328320Y-115519727D01*
X139485363Y-115754759D01*
X139685241Y-115954637D01*
X139917759Y-116110000D01*
X139685241Y-116265363D01*
X139485363Y-116465241D01*
X139328320Y-116700273D01*
X139220147Y-116961426D01*
X139165000Y-117238665D01*
X139165000Y-117521335D01*
X139220147Y-117798574D01*
X139328320Y-118059727D01*
X139485363Y-118294759D01*
X139685241Y-118494637D01*
X139917759Y-118650000D01*
X139685241Y-118805363D01*
X139485363Y-119005241D01*
X139328320Y-119240273D01*
X139220147Y-119501426D01*
X139165000Y-119778665D01*
X139165000Y-120061335D01*
X139220147Y-120338574D01*
X139328320Y-120599727D01*
X139485363Y-120834759D01*
X139685241Y-121034637D01*
X139920273Y-121191680D01*
X140181426Y-121299853D01*
X140458665Y-121355000D01*
X140741335Y-121355000D01*
X141018574Y-121299853D01*
X141279727Y-121191680D01*
X141514759Y-121034637D01*
X141714637Y-120834759D01*
X141871680Y-120599727D01*
X141979853Y-120338574D01*
X142035000Y-120061335D01*
X142035000Y-119778665D01*
X141979853Y-119501426D01*
X141871680Y-119240273D01*
X141714637Y-119005241D01*
X141514759Y-118805363D01*
X141282241Y-118650000D01*
X141514759Y-118494637D01*
X141714637Y-118294759D01*
X141871680Y-118059727D01*
X141979853Y-117798574D01*
X142035000Y-117521335D01*
X142035000Y-117238665D01*
X141979853Y-116961426D01*
X141871680Y-116700273D01*
X141714637Y-116465241D01*
X141514759Y-116265363D01*
X141282241Y-116110000D01*
X141514759Y-115954637D01*
X141714637Y-115754759D01*
X141871680Y-115519727D01*
X141979853Y-115258574D01*
X142035000Y-114981335D01*
X142035000Y-114698665D01*
X141979853Y-114421426D01*
X141871680Y-114160273D01*
X141714637Y-113925241D01*
X141514759Y-113725363D01*
X141282241Y-113570000D01*
X141514759Y-113414637D01*
X141714637Y-113214759D01*
X141871680Y-112979727D01*
X141979853Y-112718574D01*
X142035000Y-112441335D01*
X142035000Y-112158665D01*
X141979853Y-111881426D01*
X141871680Y-111620273D01*
X141714637Y-111385241D01*
X141514759Y-111185363D01*
X141282241Y-111030000D01*
X141514759Y-110874637D01*
X141714637Y-110674759D01*
X141871680Y-110439727D01*
X141979853Y-110178574D01*
X142035000Y-109901335D01*
X142035000Y-109618665D01*
X141979853Y-109341426D01*
X141871680Y-109080273D01*
X141714637Y-108845241D01*
X141514759Y-108645363D01*
X141282241Y-108490000D01*
X141514759Y-108334637D01*
X141714637Y-108134759D01*
X141871680Y-107899727D01*
X141979853Y-107638574D01*
X142035000Y-107361335D01*
X142035000Y-107078665D01*
X141979853Y-106801426D01*
X141871680Y-106540273D01*
X141714637Y-106305241D01*
X141514759Y-106105363D01*
X141279727Y-105948320D01*
X141269135Y-105943933D01*
X141455131Y-105832385D01*
X141663519Y-105643414D01*
X141831037Y-105417420D01*
X141951246Y-105163087D01*
X141991904Y-105029039D01*
X141869915Y-104807000D01*
X140727000Y-104807000D01*
X140727000Y-104827000D01*
X140473000Y-104827000D01*
X140473000Y-104807000D01*
X139330085Y-104807000D01*
X139208096Y-105029039D01*
X139248754Y-105163087D01*
X139368963Y-105417420D01*
X139536481Y-105643414D01*
X139744869Y-105832385D01*
X139930865Y-105943933D01*
X139920273Y-105948320D01*
X139685241Y-106105363D01*
X139485363Y-106305241D01*
X139328320Y-106540273D01*
X139220147Y-106801426D01*
X139165000Y-107078665D01*
X135968258Y-107078665D01*
X136203989Y-107031775D01*
X136456043Y-106927371D01*
X136682886Y-106775799D01*
X136875799Y-106582886D01*
X137027371Y-106356043D01*
X137131775Y-106103989D01*
X137185000Y-105836411D01*
X137185000Y-105563589D01*
X137131775Y-105296011D01*
X137027371Y-105043957D01*
X136875799Y-104817114D01*
X136682886Y-104624201D01*
X136456043Y-104472629D01*
X136203989Y-104368225D01*
X135936411Y-104315000D01*
X135663589Y-104315000D01*
X135396011Y-104368225D01*
X135143957Y-104472629D01*
X134917114Y-104624201D01*
X134724201Y-104817114D01*
X134572629Y-105043957D01*
X134468225Y-105296011D01*
X134415000Y-105563589D01*
X131271363Y-105563589D01*
X131284086Y-100792702D01*
X133786903Y-100792702D01*
X133858486Y-101036671D01*
X134113996Y-101157571D01*
X134388184Y-101226300D01*
X134670512Y-101240217D01*
X134950130Y-101198787D01*
X135216292Y-101103603D01*
X135341514Y-101036671D01*
X135413097Y-100792702D01*
X134600000Y-99979605D01*
X133786903Y-100792702D01*
X131284086Y-100792702D01*
X131286546Y-99870512D01*
X133159783Y-99870512D01*
X133201213Y-100150130D01*
X133296397Y-100416292D01*
X133363329Y-100541514D01*
X133607298Y-100613097D01*
X134420395Y-99800000D01*
X134779605Y-99800000D01*
X135592702Y-100613097D01*
X135836671Y-100541514D01*
X135850324Y-100512659D01*
X135985363Y-100714759D01*
X136185241Y-100914637D01*
X136420273Y-101071680D01*
X136681426Y-101179853D01*
X136958665Y-101235000D01*
X137241335Y-101235000D01*
X137518574Y-101179853D01*
X137779727Y-101071680D01*
X138014759Y-100914637D01*
X138214637Y-100714759D01*
X138371680Y-100479727D01*
X138479853Y-100218574D01*
X138535000Y-99941335D01*
X138535000Y-99658665D01*
X138479853Y-99381426D01*
X138371680Y-99120273D01*
X138214637Y-98885241D01*
X138014759Y-98685363D01*
X137779727Y-98528320D01*
X137518574Y-98420147D01*
X137241335Y-98365000D01*
X136958665Y-98365000D01*
X136681426Y-98420147D01*
X136420273Y-98528320D01*
X136185241Y-98685363D01*
X135985363Y-98885241D01*
X135851308Y-99085869D01*
X135836671Y-99058486D01*
X135592702Y-98986903D01*
X134779605Y-99800000D01*
X134420395Y-99800000D01*
X133607298Y-98986903D01*
X133363329Y-99058486D01*
X133242429Y-99313996D01*
X133173700Y-99588184D01*
X133159783Y-99870512D01*
X131286546Y-99870512D01*
X131289381Y-98807298D01*
X133786903Y-98807298D01*
X134600000Y-99620395D01*
X135413097Y-98807298D01*
X135341514Y-98563329D01*
X135086004Y-98442429D01*
X134811816Y-98373700D01*
X134529488Y-98359783D01*
X134249870Y-98401213D01*
X133983708Y-98496397D01*
X133858486Y-98563329D01*
X133786903Y-98807298D01*
X131289381Y-98807298D01*
X131323134Y-86150000D01*
X132311928Y-86150000D01*
X132311928Y-87850000D01*
X132324188Y-87974482D01*
X132360498Y-88094180D01*
X132419463Y-88204494D01*
X132498815Y-88301185D01*
X132595506Y-88380537D01*
X132705820Y-88439502D01*
X132778380Y-88461513D01*
X132646525Y-88593368D01*
X132484010Y-88836589D01*
X132372068Y-89106842D01*
X132315000Y-89393740D01*
X132315000Y-89686260D01*
X132372068Y-89973158D01*
X132484010Y-90243411D01*
X132646525Y-90486632D01*
X132853368Y-90693475D01*
X133027760Y-90810000D01*
X132853368Y-90926525D01*
X132646525Y-91133368D01*
X132484010Y-91376589D01*
X132372068Y-91646842D01*
X132315000Y-91933740D01*
X132315000Y-92226260D01*
X132372068Y-92513158D01*
X132484010Y-92783411D01*
X132646525Y-93026632D01*
X132853368Y-93233475D01*
X133096589Y-93395990D01*
X133366842Y-93507932D01*
X133653740Y-93565000D01*
X133946260Y-93565000D01*
X134233158Y-93507932D01*
X134503411Y-93395990D01*
X134746632Y-93233475D01*
X134953475Y-93026632D01*
X135070000Y-92852240D01*
X135186525Y-93026632D01*
X135393368Y-93233475D01*
X135636589Y-93395990D01*
X135906842Y-93507932D01*
X136193740Y-93565000D01*
X136486260Y-93565000D01*
X136773158Y-93507932D01*
X137043411Y-93395990D01*
X137286632Y-93233475D01*
X137493475Y-93026632D01*
X137655990Y-92783411D01*
X137767932Y-92513158D01*
X137825000Y-92226260D01*
X137825000Y-91933740D01*
X137767932Y-91646842D01*
X137655990Y-91376589D01*
X137493475Y-91133368D01*
X137286632Y-90926525D01*
X137112240Y-90810000D01*
X137286632Y-90693475D01*
X137493475Y-90486632D01*
X137655990Y-90243411D01*
X137767932Y-89973158D01*
X137825000Y-89686260D01*
X137825000Y-89393740D01*
X137767932Y-89106842D01*
X137655990Y-88836589D01*
X137493475Y-88593368D01*
X137286632Y-88386525D01*
X137104466Y-88264805D01*
X137221355Y-88195178D01*
X137437588Y-88000269D01*
X137611641Y-87766920D01*
X137736825Y-87504099D01*
X137781476Y-87356890D01*
X137660155Y-87127000D01*
X136467000Y-87127000D01*
X136467000Y-87147000D01*
X136213000Y-87147000D01*
X136213000Y-87127000D01*
X136193000Y-87127000D01*
X136193000Y-86873000D01*
X136213000Y-86873000D01*
X136213000Y-85679186D01*
X136467000Y-85679186D01*
X136467000Y-86873000D01*
X137660155Y-86873000D01*
X137781476Y-86643110D01*
X137736825Y-86495901D01*
X137611641Y-86233080D01*
X137512378Y-86100000D01*
X139161928Y-86100000D01*
X139161928Y-87700000D01*
X139174188Y-87824482D01*
X139210498Y-87944180D01*
X139269463Y-88054494D01*
X139348815Y-88151185D01*
X139445506Y-88230537D01*
X139555820Y-88289502D01*
X139675518Y-88325812D01*
X139683961Y-88326643D01*
X139485363Y-88525241D01*
X139328320Y-88760273D01*
X139220147Y-89021426D01*
X139165000Y-89298665D01*
X139165000Y-89581335D01*
X139220147Y-89858574D01*
X139328320Y-90119727D01*
X139485363Y-90354759D01*
X139685241Y-90554637D01*
X139917759Y-90710000D01*
X139685241Y-90865363D01*
X139485363Y-91065241D01*
X139328320Y-91300273D01*
X139220147Y-91561426D01*
X139165000Y-91838665D01*
X139165000Y-92121335D01*
X139220147Y-92398574D01*
X139328320Y-92659727D01*
X139485363Y-92894759D01*
X139685241Y-93094637D01*
X139917759Y-93250000D01*
X139685241Y-93405363D01*
X139485363Y-93605241D01*
X139328320Y-93840273D01*
X139220147Y-94101426D01*
X139165000Y-94378665D01*
X139165000Y-94661335D01*
X139220147Y-94938574D01*
X139328320Y-95199727D01*
X139485363Y-95434759D01*
X139685241Y-95634637D01*
X139917759Y-95790000D01*
X139685241Y-95945363D01*
X139485363Y-96145241D01*
X139328320Y-96380273D01*
X139220147Y-96641426D01*
X139165000Y-96918665D01*
X139165000Y-97201335D01*
X139220147Y-97478574D01*
X139328320Y-97739727D01*
X139485363Y-97974759D01*
X139685241Y-98174637D01*
X139917759Y-98330000D01*
X139685241Y-98485363D01*
X139485363Y-98685241D01*
X139328320Y-98920273D01*
X139220147Y-99181426D01*
X139165000Y-99458665D01*
X139165000Y-99741335D01*
X139220147Y-100018574D01*
X139328320Y-100279727D01*
X139485363Y-100514759D01*
X139685241Y-100714637D01*
X139917759Y-100870000D01*
X139685241Y-101025363D01*
X139485363Y-101225241D01*
X139328320Y-101460273D01*
X139220147Y-101721426D01*
X139165000Y-101998665D01*
X139165000Y-102281335D01*
X139220147Y-102558574D01*
X139328320Y-102819727D01*
X139485363Y-103054759D01*
X139685241Y-103254637D01*
X139920273Y-103411680D01*
X139930865Y-103416067D01*
X139744869Y-103527615D01*
X139536481Y-103716586D01*
X139368963Y-103942580D01*
X139248754Y-104196913D01*
X139208096Y-104330961D01*
X139330085Y-104553000D01*
X140473000Y-104553000D01*
X140473000Y-104533000D01*
X140727000Y-104533000D01*
X140727000Y-104553000D01*
X141869915Y-104553000D01*
X141877790Y-104538665D01*
X146785000Y-104538665D01*
X146785000Y-104821335D01*
X146840147Y-105098574D01*
X146948320Y-105359727D01*
X147105363Y-105594759D01*
X147305241Y-105794637D01*
X147537759Y-105950000D01*
X147305241Y-106105363D01*
X147105363Y-106305241D01*
X146948320Y-106540273D01*
X146840147Y-106801426D01*
X146785000Y-107078665D01*
X146785000Y-107361335D01*
X146840147Y-107638574D01*
X146948320Y-107899727D01*
X147105363Y-108134759D01*
X147305241Y-108334637D01*
X147537759Y-108490000D01*
X147305241Y-108645363D01*
X147105363Y-108845241D01*
X146948320Y-109080273D01*
X146840147Y-109341426D01*
X146785000Y-109618665D01*
X146785000Y-109901335D01*
X146840147Y-110178574D01*
X146948320Y-110439727D01*
X147105363Y-110674759D01*
X147305241Y-110874637D01*
X147537759Y-111030000D01*
X147305241Y-111185363D01*
X147105363Y-111385241D01*
X146948320Y-111620273D01*
X146840147Y-111881426D01*
X146785000Y-112158665D01*
X146785000Y-112441335D01*
X146840147Y-112718574D01*
X146948320Y-112979727D01*
X147105363Y-113214759D01*
X147305241Y-113414637D01*
X147537759Y-113570000D01*
X147305241Y-113725363D01*
X147105363Y-113925241D01*
X146948320Y-114160273D01*
X146840147Y-114421426D01*
X146785000Y-114698665D01*
X146785000Y-114981335D01*
X146840147Y-115258574D01*
X146948320Y-115519727D01*
X147105363Y-115754759D01*
X147305241Y-115954637D01*
X147537759Y-116110000D01*
X147305241Y-116265363D01*
X147105363Y-116465241D01*
X146948320Y-116700273D01*
X146840147Y-116961426D01*
X146785000Y-117238665D01*
X146785000Y-117521335D01*
X146840147Y-117798574D01*
X146948320Y-118059727D01*
X147105363Y-118294759D01*
X147305241Y-118494637D01*
X147537759Y-118650000D01*
X147305241Y-118805363D01*
X147105363Y-119005241D01*
X146948320Y-119240273D01*
X146840147Y-119501426D01*
X146785000Y-119778665D01*
X146785000Y-120061335D01*
X146840147Y-120338574D01*
X146948320Y-120599727D01*
X147105363Y-120834759D01*
X147305241Y-121034637D01*
X147540273Y-121191680D01*
X147801426Y-121299853D01*
X148078665Y-121355000D01*
X148361335Y-121355000D01*
X148638574Y-121299853D01*
X148899727Y-121191680D01*
X149134759Y-121034637D01*
X149334637Y-120834759D01*
X149491680Y-120599727D01*
X149599853Y-120338574D01*
X149655000Y-120061335D01*
X149655000Y-119778665D01*
X149599853Y-119501426D01*
X149491680Y-119240273D01*
X149334637Y-119005241D01*
X149134759Y-118805363D01*
X148902241Y-118650000D01*
X149134759Y-118494637D01*
X149334637Y-118294759D01*
X149491680Y-118059727D01*
X149599853Y-117798574D01*
X149655000Y-117521335D01*
X149655000Y-117238665D01*
X149599853Y-116961426D01*
X149491680Y-116700273D01*
X149334637Y-116465241D01*
X149134759Y-116265363D01*
X148902241Y-116110000D01*
X149134759Y-115954637D01*
X149334637Y-115754759D01*
X149491680Y-115519727D01*
X149599853Y-115258574D01*
X149655000Y-114981335D01*
X149655000Y-114698665D01*
X149599853Y-114421426D01*
X149491680Y-114160273D01*
X149334637Y-113925241D01*
X149134759Y-113725363D01*
X148902241Y-113570000D01*
X149134759Y-113414637D01*
X149334637Y-113214759D01*
X149491680Y-112979727D01*
X149599853Y-112718574D01*
X149655000Y-112441335D01*
X149655000Y-112158665D01*
X149599853Y-111881426D01*
X149491680Y-111620273D01*
X149334637Y-111385241D01*
X149134759Y-111185363D01*
X148902241Y-111030000D01*
X149134759Y-110874637D01*
X149334637Y-110674759D01*
X149491680Y-110439727D01*
X149599853Y-110178574D01*
X149655000Y-109901335D01*
X149655000Y-109618665D01*
X149599853Y-109341426D01*
X149491680Y-109080273D01*
X149334637Y-108845241D01*
X149134759Y-108645363D01*
X148902241Y-108490000D01*
X149134759Y-108334637D01*
X149334637Y-108134759D01*
X149491680Y-107899727D01*
X149599853Y-107638574D01*
X149655000Y-107361335D01*
X149655000Y-107078665D01*
X149599853Y-106801426D01*
X149491680Y-106540273D01*
X149334637Y-106305241D01*
X149134759Y-106105363D01*
X148902241Y-105950000D01*
X149134759Y-105794637D01*
X149334637Y-105594759D01*
X149491680Y-105359727D01*
X149599853Y-105098574D01*
X149655000Y-104821335D01*
X149655000Y-104538665D01*
X149599853Y-104261426D01*
X149491680Y-104000273D01*
X149334637Y-103765241D01*
X149134759Y-103565363D01*
X148899727Y-103408320D01*
X148889135Y-103403933D01*
X149075131Y-103292385D01*
X149283519Y-103103414D01*
X149451037Y-102877420D01*
X149571246Y-102623087D01*
X149611904Y-102489039D01*
X149489915Y-102267000D01*
X148347000Y-102267000D01*
X148347000Y-102287000D01*
X148093000Y-102287000D01*
X148093000Y-102267000D01*
X146950085Y-102267000D01*
X146828096Y-102489039D01*
X146868754Y-102623087D01*
X146988963Y-102877420D01*
X147156481Y-103103414D01*
X147364869Y-103292385D01*
X147550865Y-103403933D01*
X147540273Y-103408320D01*
X147305241Y-103565363D01*
X147105363Y-103765241D01*
X146948320Y-104000273D01*
X146840147Y-104261426D01*
X146785000Y-104538665D01*
X141877790Y-104538665D01*
X141991904Y-104330961D01*
X141951246Y-104196913D01*
X141831037Y-103942580D01*
X141663519Y-103716586D01*
X141455131Y-103527615D01*
X141269135Y-103416067D01*
X141279727Y-103411680D01*
X141514759Y-103254637D01*
X141714637Y-103054759D01*
X141871680Y-102819727D01*
X141979853Y-102558574D01*
X142035000Y-102281335D01*
X142035000Y-101998665D01*
X141979853Y-101721426D01*
X141871680Y-101460273D01*
X141714637Y-101225241D01*
X141514759Y-101025363D01*
X141282241Y-100870000D01*
X141514759Y-100714637D01*
X141714637Y-100514759D01*
X141871680Y-100279727D01*
X141979853Y-100018574D01*
X142035000Y-99741335D01*
X142035000Y-99458665D01*
X141979853Y-99181426D01*
X141871680Y-98920273D01*
X141714637Y-98685241D01*
X141514759Y-98485363D01*
X141282241Y-98330000D01*
X141514759Y-98174637D01*
X141714637Y-97974759D01*
X141871680Y-97739727D01*
X141979853Y-97478574D01*
X142035000Y-97201335D01*
X142035000Y-96918665D01*
X141979853Y-96641426D01*
X141871680Y-96380273D01*
X141714637Y-96145241D01*
X141514759Y-95945363D01*
X141282241Y-95790000D01*
X141514759Y-95634637D01*
X141714637Y-95434759D01*
X141871680Y-95199727D01*
X141979853Y-94938574D01*
X142035000Y-94661335D01*
X142035000Y-94378665D01*
X141979853Y-94101426D01*
X141871680Y-93840273D01*
X141714637Y-93605241D01*
X141514759Y-93405363D01*
X141282241Y-93250000D01*
X141514759Y-93094637D01*
X141714637Y-92894759D01*
X141871680Y-92659727D01*
X141979853Y-92398574D01*
X142035000Y-92121335D01*
X142035000Y-91838665D01*
X141979853Y-91561426D01*
X141871680Y-91300273D01*
X141714637Y-91065241D01*
X141514759Y-90865363D01*
X141282241Y-90710000D01*
X141514759Y-90554637D01*
X141714637Y-90354759D01*
X141871680Y-90119727D01*
X141979853Y-89858574D01*
X142035000Y-89581335D01*
X142035000Y-89298665D01*
X141979853Y-89021426D01*
X141871680Y-88760273D01*
X141714637Y-88525241D01*
X141516039Y-88326643D01*
X141524482Y-88325812D01*
X141644180Y-88289502D01*
X141754494Y-88230537D01*
X141851185Y-88151185D01*
X141930537Y-88054494D01*
X141989502Y-87944180D01*
X142025812Y-87824482D01*
X142038072Y-87700000D01*
X142038072Y-86758665D01*
X146785000Y-86758665D01*
X146785000Y-87041335D01*
X146840147Y-87318574D01*
X146948320Y-87579727D01*
X147105363Y-87814759D01*
X147305241Y-88014637D01*
X147537759Y-88170000D01*
X147305241Y-88325363D01*
X147105363Y-88525241D01*
X146948320Y-88760273D01*
X146840147Y-89021426D01*
X146785000Y-89298665D01*
X146785000Y-89581335D01*
X146840147Y-89858574D01*
X146948320Y-90119727D01*
X147105363Y-90354759D01*
X147305241Y-90554637D01*
X147537759Y-90710000D01*
X147305241Y-90865363D01*
X147105363Y-91065241D01*
X146948320Y-91300273D01*
X146840147Y-91561426D01*
X146785000Y-91838665D01*
X146785000Y-92121335D01*
X146840147Y-92398574D01*
X146948320Y-92659727D01*
X147105363Y-92894759D01*
X147305241Y-93094637D01*
X147537759Y-93250000D01*
X147305241Y-93405363D01*
X147105363Y-93605241D01*
X146948320Y-93840273D01*
X146840147Y-94101426D01*
X146785000Y-94378665D01*
X146785000Y-94661335D01*
X146840147Y-94938574D01*
X146948320Y-95199727D01*
X147105363Y-95434759D01*
X147305241Y-95634637D01*
X147537759Y-95790000D01*
X147305241Y-95945363D01*
X147105363Y-96145241D01*
X146948320Y-96380273D01*
X146840147Y-96641426D01*
X146785000Y-96918665D01*
X146785000Y-97201335D01*
X146840147Y-97478574D01*
X146948320Y-97739727D01*
X147105363Y-97974759D01*
X147305241Y-98174637D01*
X147537759Y-98330000D01*
X147305241Y-98485363D01*
X147105363Y-98685241D01*
X146948320Y-98920273D01*
X146840147Y-99181426D01*
X146785000Y-99458665D01*
X146785000Y-99741335D01*
X146840147Y-100018574D01*
X146948320Y-100279727D01*
X147105363Y-100514759D01*
X147305241Y-100714637D01*
X147540273Y-100871680D01*
X147550865Y-100876067D01*
X147364869Y-100987615D01*
X147156481Y-101176586D01*
X146988963Y-101402580D01*
X146868754Y-101656913D01*
X146828096Y-101790961D01*
X146950085Y-102013000D01*
X148093000Y-102013000D01*
X148093000Y-101993000D01*
X148347000Y-101993000D01*
X148347000Y-102013000D01*
X149489915Y-102013000D01*
X149611904Y-101790961D01*
X149571246Y-101656913D01*
X149451037Y-101402580D01*
X149283519Y-101176586D01*
X149075131Y-100987615D01*
X148889135Y-100876067D01*
X148899727Y-100871680D01*
X149134759Y-100714637D01*
X149334637Y-100514759D01*
X149491680Y-100279727D01*
X149599853Y-100018574D01*
X149655000Y-99741335D01*
X149655000Y-99458665D01*
X149599853Y-99181426D01*
X149491680Y-98920273D01*
X149334637Y-98685241D01*
X149134759Y-98485363D01*
X148902241Y-98330000D01*
X149134759Y-98174637D01*
X149334637Y-97974759D01*
X149491680Y-97739727D01*
X149599853Y-97478574D01*
X149655000Y-97201335D01*
X149655000Y-96918665D01*
X149599853Y-96641426D01*
X149491680Y-96380273D01*
X149334637Y-96145241D01*
X149134759Y-95945363D01*
X148902241Y-95790000D01*
X149134759Y-95634637D01*
X149334637Y-95434759D01*
X149491680Y-95199727D01*
X149599853Y-94938574D01*
X149655000Y-94661335D01*
X149655000Y-94378665D01*
X149599853Y-94101426D01*
X149491680Y-93840273D01*
X149334637Y-93605241D01*
X149134759Y-93405363D01*
X148902241Y-93250000D01*
X149134759Y-93094637D01*
X149334637Y-92894759D01*
X149491680Y-92659727D01*
X149599853Y-92398574D01*
X149655000Y-92121335D01*
X149655000Y-91838665D01*
X149599853Y-91561426D01*
X149491680Y-91300273D01*
X149334637Y-91065241D01*
X149134759Y-90865363D01*
X148902241Y-90710000D01*
X149134759Y-90554637D01*
X149334637Y-90354759D01*
X149491680Y-90119727D01*
X149599853Y-89858574D01*
X149655000Y-89581335D01*
X149655000Y-89298665D01*
X149599853Y-89021426D01*
X149491680Y-88760273D01*
X149334637Y-88525241D01*
X149134759Y-88325363D01*
X148902241Y-88170000D01*
X149134759Y-88014637D01*
X149334637Y-87814759D01*
X149491680Y-87579727D01*
X149599853Y-87318574D01*
X149655000Y-87041335D01*
X149655000Y-86758665D01*
X149599853Y-86481426D01*
X149491680Y-86220273D01*
X149334637Y-85985241D01*
X149134759Y-85785363D01*
X148899727Y-85628320D01*
X148638574Y-85520147D01*
X148361335Y-85465000D01*
X148078665Y-85465000D01*
X147801426Y-85520147D01*
X147540273Y-85628320D01*
X147305241Y-85785363D01*
X147105363Y-85985241D01*
X146948320Y-86220273D01*
X146840147Y-86481426D01*
X146785000Y-86758665D01*
X142038072Y-86758665D01*
X142038072Y-86100000D01*
X142025812Y-85975518D01*
X141989502Y-85855820D01*
X141930537Y-85745506D01*
X141851185Y-85648815D01*
X141754494Y-85569463D01*
X141644180Y-85510498D01*
X141524482Y-85474188D01*
X141400000Y-85461928D01*
X139800000Y-85461928D01*
X139675518Y-85474188D01*
X139555820Y-85510498D01*
X139445506Y-85569463D01*
X139348815Y-85648815D01*
X139269463Y-85745506D01*
X139210498Y-85855820D01*
X139174188Y-85975518D01*
X139161928Y-86100000D01*
X137512378Y-86100000D01*
X137437588Y-85999731D01*
X137221355Y-85804822D01*
X136971252Y-85655843D01*
X136696891Y-85558519D01*
X136467000Y-85679186D01*
X136213000Y-85679186D01*
X135983109Y-85558519D01*
X135708748Y-85655843D01*
X135458645Y-85804822D01*
X135262498Y-85981626D01*
X135239502Y-85905820D01*
X135180537Y-85795506D01*
X135101185Y-85698815D01*
X135004494Y-85619463D01*
X134894180Y-85560498D01*
X134774482Y-85524188D01*
X134650000Y-85511928D01*
X132950000Y-85511928D01*
X132825518Y-85524188D01*
X132705820Y-85560498D01*
X132595506Y-85619463D01*
X132498815Y-85698815D01*
X132419463Y-85795506D01*
X132360498Y-85905820D01*
X132324188Y-86025518D01*
X132311928Y-86150000D01*
X131323134Y-86150000D01*
X131326662Y-84827000D01*
X149873337Y-84827000D01*
X149972660Y-122172328D01*
G37*
%TD.AperFunction*%
%TD*%
M02*
