%TF.GenerationSoftware,KiCad,Pcbnew,(5.1.7)-1*%
%TF.CreationDate,2021-02-08T15:15:02+01:00*%
%TF.ProjectId,usbasp16Mhz,75736261-7370-4313-964d-687a2e6b6963,rev?*%
%TF.SameCoordinates,Original*%
%TF.FileFunction,Soldermask,Bot*%
%TF.FilePolarity,Negative*%
%FSLAX46Y46*%
G04 Gerber Fmt 4.6, Leading zero omitted, Abs format (unit mm)*
G04 Created by KiCad (PCBNEW (5.1.7)-1) date 2021-02-08 15:15:02*
%MOMM*%
%LPD*%
G01*
G04 APERTURE LIST*
%ADD10R,1.700000X1.700000*%
%ADD11O,1.700000X1.700000*%
%ADD12R,1.600000X1.600000*%
%ADD13O,1.600000X1.600000*%
%ADD14C,1.500000*%
%ADD15C,1.600000*%
G04 APERTURE END LIST*
D10*
%TO.C,J1*%
X133800000Y-87000000D03*
D11*
X136340000Y-87000000D03*
X133800000Y-89540000D03*
X136340000Y-89540000D03*
X133800000Y-92080000D03*
X136340000Y-92080000D03*
%TD*%
D12*
%TO.C,U1*%
X140600000Y-86900000D03*
D13*
X148220000Y-119920000D03*
X140600000Y-89440000D03*
X148220000Y-117380000D03*
X140600000Y-91980000D03*
X148220000Y-114840000D03*
X140600000Y-94520000D03*
X148220000Y-112300000D03*
X140600000Y-97060000D03*
X148220000Y-109760000D03*
X140600000Y-99600000D03*
X148220000Y-107220000D03*
X140600000Y-102140000D03*
X148220000Y-104680000D03*
X140600000Y-104680000D03*
X148220000Y-102140000D03*
X140600000Y-107220000D03*
X148220000Y-99600000D03*
X140600000Y-109760000D03*
X148220000Y-97060000D03*
X140600000Y-112300000D03*
X148220000Y-94520000D03*
X140600000Y-114840000D03*
X148220000Y-91980000D03*
X140600000Y-117380000D03*
X148220000Y-89440000D03*
X140600000Y-119920000D03*
X148220000Y-86900000D03*
%TD*%
D14*
%TO.C,Y1*%
X135800000Y-105700000D03*
X135800000Y-110580000D03*
%TD*%
D15*
%TO.C,C2*%
X134700000Y-116600000D03*
X137200000Y-116600000D03*
%TD*%
%TO.C,C1*%
X134600000Y-99800000D03*
X137100000Y-99800000D03*
%TD*%
M02*
