%TF.GenerationSoftware,KiCad,Pcbnew,(5.1.7)-1*%
%TF.CreationDate,2020-12-03T15:27:53+01:00*%
%TF.ProjectId,usbasp16Mhz,75736261-7370-4313-964d-687a2e6b6963,rev?*%
%TF.SameCoordinates,Original*%
%TF.FileFunction,Copper,L1,Top*%
%TF.FilePolarity,Positive*%
%FSLAX46Y46*%
G04 Gerber Fmt 4.6, Leading zero omitted, Abs format (unit mm)*
G04 Created by KiCad (PCBNEW (5.1.7)-1) date 2020-12-03 15:27:53*
%MOMM*%
%LPD*%
G01*
G04 APERTURE LIST*
%TA.AperFunction,ComponentPad*%
%ADD10R,1.600000X1.600000*%
%TD*%
%TA.AperFunction,ComponentPad*%
%ADD11C,1.600000*%
%TD*%
%TA.AperFunction,ComponentPad*%
%ADD12R,1.700000X1.700000*%
%TD*%
%TA.AperFunction,ComponentPad*%
%ADD13O,1.700000X1.700000*%
%TD*%
%TA.AperFunction,ComponentPad*%
%ADD14O,1.600000X1.600000*%
%TD*%
%TA.AperFunction,ComponentPad*%
%ADD15C,1.500000*%
%TD*%
%TA.AperFunction,Conductor*%
%ADD16C,0.250000*%
%TD*%
G04 APERTURE END LIST*
D10*
%TO.P,C1,1*%
%TO.N,GND*%
X134700000Y-118600000D03*
D11*
%TO.P,C1,2*%
%TO.N,Net-(C1-Pad2)*%
X137200000Y-118600000D03*
%TD*%
%TO.P,C2,2*%
%TO.N,Net-(C2-Pad2)*%
X136800000Y-97900000D03*
D10*
%TO.P,C2,1*%
%TO.N,GND*%
X134300000Y-97900000D03*
%TD*%
D12*
%TO.P,J1,1*%
%TO.N,Net-(J1-Pad1)*%
X133800000Y-87000000D03*
D13*
%TO.P,J1,2*%
%TO.N,Net-(J1-Pad2)*%
X136340000Y-87000000D03*
%TO.P,J1,3*%
%TO.N,Net-(J1-Pad3)*%
X133800000Y-89540000D03*
%TO.P,J1,4*%
%TO.N,Net-(J1-Pad4)*%
X136340000Y-89540000D03*
%TO.P,J1,5*%
%TO.N,Net-(J1-Pad5)*%
X133800000Y-92080000D03*
%TO.P,J1,6*%
%TO.N,GND*%
X136340000Y-92080000D03*
%TD*%
D10*
%TO.P,U1,1*%
%TO.N,Net-(J1-Pad1)*%
X140600000Y-86900000D03*
D14*
%TO.P,U1,15*%
%TO.N,N/C*%
X148220000Y-119920000D03*
%TO.P,U1,2*%
X140600000Y-89440000D03*
%TO.P,U1,16*%
X148220000Y-117380000D03*
%TO.P,U1,3*%
X140600000Y-91980000D03*
%TO.P,U1,17*%
%TO.N,Net-(J1-Pad5)*%
X148220000Y-114840000D03*
%TO.P,U1,4*%
%TO.N,N/C*%
X140600000Y-94520000D03*
%TO.P,U1,18*%
%TO.N,Net-(J1-Pad3)*%
X148220000Y-112300000D03*
%TO.P,U1,5*%
%TO.N,N/C*%
X140600000Y-97060000D03*
%TO.P,U1,19*%
%TO.N,Net-(J1-Pad2)*%
X148220000Y-109760000D03*
%TO.P,U1,6*%
%TO.N,N/C*%
X140600000Y-99600000D03*
%TO.P,U1,20*%
X148220000Y-107220000D03*
%TO.P,U1,7*%
%TO.N,Net-(J1-Pad4)*%
X140600000Y-102140000D03*
%TO.P,U1,21*%
%TO.N,N/C*%
X148220000Y-104680000D03*
%TO.P,U1,8*%
%TO.N,GND*%
X140600000Y-104680000D03*
%TO.P,U1,22*%
X148220000Y-102140000D03*
%TO.P,U1,9*%
%TO.N,Net-(C1-Pad2)*%
X140600000Y-107220000D03*
%TO.P,U1,23*%
%TO.N,N/C*%
X148220000Y-99600000D03*
%TO.P,U1,10*%
%TO.N,Net-(C2-Pad2)*%
X140600000Y-109760000D03*
%TO.P,U1,24*%
%TO.N,N/C*%
X148220000Y-97060000D03*
%TO.P,U1,11*%
X140600000Y-112300000D03*
%TO.P,U1,25*%
X148220000Y-94520000D03*
%TO.P,U1,12*%
X140600000Y-114840000D03*
%TO.P,U1,26*%
X148220000Y-91980000D03*
%TO.P,U1,13*%
X140600000Y-117380000D03*
%TO.P,U1,27*%
X148220000Y-89440000D03*
%TO.P,U1,14*%
X140600000Y-119920000D03*
%TO.P,U1,28*%
X148220000Y-86900000D03*
%TD*%
D15*
%TO.P,Y1,1*%
%TO.N,Net-(C1-Pad2)*%
X135800000Y-105700000D03*
%TO.P,Y1,2*%
%TO.N,Net-(C2-Pad2)*%
X135800000Y-110580000D03*
%TD*%
D16*
%TO.N,Net-(C1-Pad2)*%
X139080000Y-105700000D02*
X140600000Y-107220000D01*
X135800000Y-105700000D02*
X139080000Y-105700000D01*
X137568998Y-107220000D02*
X140600000Y-107220000D01*
X134724999Y-110063999D02*
X137568998Y-107220000D01*
X134724999Y-116124999D02*
X134724999Y-110063999D01*
X137200000Y-118600000D02*
X134724999Y-116124999D01*
%TO.N,Net-(C2-Pad2)*%
X139780000Y-110580000D02*
X140600000Y-109760000D01*
X135800000Y-110580000D02*
X139780000Y-110580000D01*
X141725001Y-108634999D02*
X140600000Y-109760000D01*
X141725001Y-104139999D02*
X141725001Y-108634999D01*
X140986414Y-103401412D02*
X141725001Y-104139999D01*
X140000000Y-103401412D02*
X140986414Y-103401412D01*
X136800000Y-100201412D02*
X140000000Y-103401412D01*
X136800000Y-97900000D02*
X136800000Y-100201412D01*
%TO.N,Net-(J1-Pad1)*%
X139524999Y-85824999D02*
X140600000Y-86900000D01*
X135775999Y-85824999D02*
X139524999Y-85824999D01*
X134600998Y-87000000D02*
X135775999Y-85824999D01*
X133800000Y-87000000D02*
X134600998Y-87000000D01*
%TO.N,Net-(J1-Pad2)*%
X147094999Y-94269997D02*
X147094999Y-108634999D01*
X140850003Y-88025001D02*
X147094999Y-94269997D01*
X137365001Y-88025001D02*
X140850003Y-88025001D01*
X147094999Y-108634999D02*
X148220000Y-109760000D01*
X136340000Y-87000000D02*
X137365001Y-88025001D01*
%TO.N,Net-(J1-Pad3)*%
X146644989Y-110724989D02*
X148220000Y-112300000D01*
X137704999Y-90904999D02*
X139474999Y-92674999D01*
X135164999Y-90904999D02*
X137704999Y-90904999D01*
X133800000Y-89540000D02*
X135164999Y-90904999D01*
X146644989Y-98899987D02*
X146644989Y-107144989D01*
X141140001Y-93394999D02*
X146644989Y-98899987D01*
X140349997Y-93394999D02*
X141140001Y-93394999D01*
X139629997Y-92674999D02*
X140349997Y-93394999D01*
X139474999Y-92674999D02*
X139629997Y-92674999D01*
X146644989Y-107144989D02*
X146644989Y-110724989D01*
X146644989Y-106519987D02*
X146644989Y-107144989D01*
%TO.N,Net-(J1-Pad4)*%
X139374998Y-102140000D02*
X140600000Y-102140000D01*
X139100000Y-100401413D02*
X139100000Y-101865002D01*
X139100000Y-101865002D02*
X139374998Y-102140000D01*
X139024988Y-100326401D02*
X139100000Y-100401413D01*
X139024988Y-98024988D02*
X139024988Y-100326401D01*
X134255001Y-93255001D02*
X139024988Y-98024988D01*
X133235999Y-93255001D02*
X134255001Y-93255001D01*
X132624999Y-88975999D02*
X132624999Y-92644001D01*
X133235999Y-88364999D02*
X132624999Y-88975999D01*
X132624999Y-92644001D02*
X133235999Y-93255001D01*
X135164999Y-88364999D02*
X133235999Y-88364999D01*
X136340000Y-89540000D02*
X135164999Y-88364999D01*
%TO.N,Net-(J1-Pad5)*%
X140349997Y-101014999D02*
X141140001Y-101014999D01*
X139474999Y-100140001D02*
X140349997Y-101014999D01*
X139474999Y-97754999D02*
X139474999Y-100140001D01*
X146194979Y-112814979D02*
X148220000Y-114840000D01*
X133800000Y-92080000D02*
X139474999Y-97754999D01*
X141140001Y-101014999D02*
X146194979Y-106069977D01*
X146194979Y-106069977D02*
X146194979Y-112814979D01*
%TD*%
M02*
