M48
; DRILL file {KiCad (5.1.7)-1} date 12/03/20 15:28:14
; FORMAT={-:-/ absolute / inch / decimal}
; #@! TF.CreationDate,2020-12-03T15:28:14+01:00
; #@! TF.GenerationSoftware,Kicad,Pcbnew,(5.1.7)-1
; #@! TF.FileFunction,Plated,1,2,PTH
FMAT,2
INCH
T1C0.0315
T2C0.0394
%
G90
G05
T1
X5.3031Y-4.6693
X5.4016Y-4.6693
X5.5354Y-3.4213
X5.5354Y-3.5213
X5.5354Y-3.6213
X5.5354Y-3.7213
X5.5354Y-3.8213
X5.5354Y-3.9213
X5.5354Y-4.0213
X5.5354Y-4.1213
X5.5354Y-4.2213
X5.5354Y-4.3213
X5.5354Y-4.4213
X5.5354Y-4.5213
X5.5354Y-4.6213
X5.5354Y-4.7213
X5.8354Y-3.4213
X5.8354Y-3.5213
X5.8354Y-3.6213
X5.8354Y-3.7213
X5.8354Y-3.8213
X5.8354Y-3.9213
X5.8354Y-4.0213
X5.8354Y-4.1213
X5.8354Y-4.2213
X5.8354Y-4.3213
X5.8354Y-4.4213
X5.8354Y-4.5213
X5.8354Y-4.6213
X5.8354Y-4.7213
X5.2874Y-3.8543
X5.3858Y-3.8543
X5.3465Y-4.1614
X5.3465Y-4.3535
T2
X5.2677Y-3.4252
X5.2677Y-3.5252
X5.2677Y-3.6252
X5.3677Y-3.4252
X5.3677Y-3.5252
X5.3677Y-3.6252
T0
M30
